<svg xmlns="http://www.w3.org/2000/svg" width="35.571" height="22.046" viewBox="0 0 35.571 22.046">
  <g id="aboutus" transform="translate(-148.669 -239.997)">
    <g id="Layer_2" data-name="Layer 2" transform="translate(149.169 240.537)">
      <g id="Layer_1" data-name="Layer 1" transform="translate(0.5 0.46)">
        <circle id="Ellipse_50" data-name="Ellipse 50" cx="4.939" cy="4.939" r="4.939" transform="translate(11.979 0.036)" fill="none" stroke="#091d3f" stroke-miterlimit="10" stroke-width="2"/>
        <path id="Path_2309" data-name="Path 2309" d="M12.2,11.174A6.423,6.423,0,0,0,9.47,16.631v4.648H23.9V16.631a6.313,6.313,0,0,0-3-5.621" transform="translate(0.233 -1.414)" fill="none" stroke="#091d3f" stroke-miterlimit="10" stroke-width="2"/>
        <path id="Path_2310" data-name="Path 2310" d="M24.74,1.37a4.848,4.848,0,0,1,2.8-.91A4.939,4.939,0,0,1,28,10.31" transform="translate(-2.693 -0.46)" fill="none" stroke="#091d3f" stroke-miterlimit="10" stroke-width="2"/>
        <path id="Path_2311" data-name="Path 2311" d="M30.19,21.279h6.567V16.631a6.148,6.148,0,0,0-3.638-5.621" transform="translate(-3.186 -1.414)" fill="none" stroke="#091d3f" stroke-miterlimit="10" stroke-width="2"/>
        <path id="Path_2312" data-name="Path 2312" d="M12.4,1.575a4.93,4.93,0,1,0-3.256,8.977" transform="translate(-0.879 -0.483)" fill="none" stroke="#091d3f" stroke-miterlimit="10" stroke-width="2"/>
        <path id="Path_2313" data-name="Path 2313" d="M7.067,21.479H.5V16.84a6.148,6.148,0,0,1,3.638-5.63" transform="translate(-0.5 -1.432)" fill="none" stroke="#091d3f" stroke-miterlimit="10" stroke-width="2"/>
      </g>
    </g>
  </g>
</svg>
