<svg xmlns="http://www.w3.org/2000/svg" xmlns:xlink="http://www.w3.org/1999/xlink" width="100" height="130.35" viewBox="0 0 100 130.35">
  <defs>
    <clipPath id="clip-path">
      <rect id="Rectangle_1562" data-name="Rectangle 1562" width="99.71" height="99.71" transform="translate(4.89 -1.2)" fill="none"/>
    </clipPath>
  </defs>
  <g id="Layer_1" data-name="Layer 1" transform="translate(-4.75 1.2)">
    <rect id="Rectangle_1550" data-name="Rectangle 1550" width="100" height="100" transform="translate(4.75)" fill="#091d3f"/>
    <g id="Group_25" data-name="Group 25" clip-path="url(#clip-path)">
      <path id="Path_1926" data-name="Path 1926" d="M119.63,86.33s24.66-37.84-1.52-48.18c-6.59-2.61-8.89-39.1-38.17-20.86-11.65,7.26-28.42-1.52-44.48,3.28C20.72,25,20.38,37.69,22.24,42.27c2,5-6.09,11-14.41,15.08-13,6.45-3.45,29.08,8.88,29.19S119.63,86.33,119.63,86.33Z" transform="translate(0 -1.2)" fill="#c3e8f2"/>
      <path id="Path_1927" data-name="Path 1927" d="M91.77,48.67c.89-4.56,1.71-8.93,1.71-8.93A9.48,9.48,0,0,0,89.85,41c-1.09.91-1.2,6.7-1.56,8.34a12,12,0,0,0-.19,1.47,34.51,34.51,0,0,0,.24,6.87,5.15,5.15,0,0,1-.52,1.46s-.22.69,1.23,1.72C90,61.54,90.81,53.63,91.77,48.67Z" transform="translate(0 -1.2)" fill="#d9935c"/>
      <path id="Path_1928" data-name="Path 1928" d="M93.48,39.74s-.47,2.52-1.09,5.73c-.19,1-.4,2.1-.62,3.2-.87,1.71-1.62,2.88-1.85,2.66a2.67,2.67,0,0,0-1.82-.49,12,12,0,0,1,.19-1.47,1.037,1.037,0,0,1,.08-.46c.3-2.06.48-7,1.48-7.88a9.48,9.48,0,0,1,3.63-1.29Z" transform="translate(0 -1.2)" fill="#faa31c"/>
      <path id="Path_1929" data-name="Path 1929" d="M92.39,45.47c-.19,1-.4,2.1-.62,3.2-.87,1.71-1.62,2.88-1.85,2.66a2.67,2.67,0,0,0-1.82-.49,12,12,0,0,1,.19-1.47,1.037,1.037,0,0,1,.08-.46L91,42.59Z" transform="translate(0 -1.2)" fill="#e27f2b"/>
      <path id="Path_1930" data-name="Path 1930" d="M97.1,39.67a20.519,20.519,0,0,0-.1-2.82l-3.52.57v2.27h0s-.1,1.11,1.26,1.27S97.14,40.53,97.1,39.67Z" transform="translate(0 -1.2)" fill="#d9935c"/>
      <path id="Path_1931" data-name="Path 1931" d="M93.46,37.64s.83,1.7,1.78,1.7,1.84-1.6,1.84-1.6Z" transform="translate(0 -1.2)" fill="#cb7d45"/>
      <path id="Path_1932" data-name="Path 1932" d="M95.8,86.34a6.22,6.22,0,0,1,.43-1.62c.29-.59,2.18-.22,2.18-.22s.38.33.46,1.84Z" transform="translate(0 -1.2)" fill="#243962"/>
      <path id="Path_1933" data-name="Path 1933" d="M89.37,86.33c.45-.27.2-2.29.2-2.29s-2.07-1.65-2.35-.39-2,1.84-2.92,2a1,1,0,0,0-.93.69Z" transform="translate(0 -1.2)" fill="#243962"/>
      <path id="Path_1934" data-name="Path 1934" d="M97.44,35.84s2.34-3.71-2.17-4c0,0-1.69.2-2.07-.19a4.17,4.17,0,0,0-.09,4.14C94.34,38,97.44,35.84,97.44,35.84Z" transform="translate(0 -1.2)" fill="#243962"/>
      <path id="Path_1935" data-name="Path 1935" d="M93.57,37.77a4.77,4.77,0,0,0,1.64.56A13.35,13.35,0,0,0,97,37.84c.42-.25.39-.77.42-1.48a11.1,11.1,0,0,0,0-2c-.11-.58-.48-.91-1.51-1-1.9-.16-2.69.31-2.73,1v.49C93.06,36.78,93.21,37.48,93.57,37.77Z" transform="translate(0 -1.2)" fill="#d9935c"/>
      <path id="Path_1936" data-name="Path 1936" d="M93.65,71.3c-.08.46-.13.84-.15,1.11-.19,3.75-3.15,12.31-3.68,12.51-.82.31-2.11-.35-2.79-.56a.58.58,0,0,1-.4-.66c1.46-6.74,2-16.45,2.2-22.19a26,26,0,0,1,.6-4.9s7.22-1.92,7.26.51C96.73,59.28,94.3,67.74,93.65,71.3Z" transform="translate(0 -1.2)" fill="#2b488c"/>
      <path id="Path_1937" data-name="Path 1937" d="M93.65,71.3l-4.82-9.79a26,26,0,0,1,.6-4.9s7.22-1.92,7.26.51C96.73,59.28,94.3,67.74,93.65,71.3Z" transform="translate(0 -1.2)" fill="#243962"/>
      <path id="Path_1938" data-name="Path 1938" d="M92.05,57.13,95.86,84.8a7.35,7.35,0,0,0,3,.08s1.12-14.71,1-18.27.8-9.52-.21-10.18S92.05,57.13,92.05,57.13Z" transform="translate(0 -1.2)" fill="#2b488c"/>
      <path id="Path_1939" data-name="Path 1939" d="M100.21,56.43a.56.56,0,0,1-.56.59l-6,.1-4.42.06c-.21,0,.44-1.65.46-12.44,0-2.41,3.73-5,3.8-5h0a1.46,1.46,0,0,0,1.39,1c1,.06,2.22-.43,2.22-1a3.24,3.24,0,0,1,.31.39,15.57,15.57,0,0,1,2.14,5.59c.51,2.43.31,5.69.68,9.9A6.47,6.47,0,0,1,100.21,56.43Z" transform="translate(0 -1.2)" fill="#7a97cd"/>
      <path id="Path_1940" data-name="Path 1940" d="M100,57.06a12.17,12.17,0,0,1-2.29.67,22.75,22.75,0,0,1-4.45.44c-2.93,0-4-1-4-1-.21,0,.44-1.65.46-12.44,0-2.41,3.73-5,3.8-5h0s-.1,3.2.87,4.15a15.13,15.13,0,0,0,3.13-4,18.69,18.69,0,0,1,2.06,5.9,16.931,16.931,0,0,1,.28,2c.17,2.12.13,4.72.4,7.85a6.47,6.47,0,0,1,0,.78C100.23,56.75,100.31,57.05,100,57.06Z" transform="translate(0 -1.2)" fill="#faa31c"/>
      <path id="Path_1941" data-name="Path 1941" d="M100,57.06a12.17,12.17,0,0,1-2.29.67,7.88,7.88,0,0,1-1.15-4.06c-.14-3.45,3.14-7.9,3.14-7.9l.13,2c.17,2.12.13,4.72.4,7.85a6.47,6.47,0,0,1,0,.78C100.23,56.75,100.31,57.05,100,57.06Z" transform="translate(0 -1.2)" fill="#e27f2b"/>
      <rect id="Rectangle_1551" data-name="Rectangle 1551" width="6.45" height="8.85" transform="translate(91.56 47.395) rotate(-30)" fill="#2b488c"/>
      <path id="Path_1942" data-name="Path 1942" d="M100.63,40.9a9.2,9.2,0,0,0-3.08-1l-.46-.09c.09.38.27,1,.51,1.7,1,3,3,8.1,2.63,8.21a11,11,0,0,1-1.22.24c-1.77.26-4.14.37-4.39.38,0,0-.87-.81-1.2-.81s-1.29.35-1.39.62-.14.76.14.87a14,14,0,0,0,1.7.4H94a29.48,29.48,0,0,0,5.33,1.07,17.4,17.4,0,0,0,3.1.09C103.87,49.49,101.56,41.6,100.63,40.9Z" transform="translate(0 -1.2)" fill="#d9935c"/>
      <path id="Path_1943" data-name="Path 1943" d="M102.45,52.54a17.4,17.4,0,0,1-3.1-.09A3.67,3.67,0,0,0,99,49.92a11,11,0,0,0,1.22-.24c.41-.11-1.61-5.21-2.63-8.21-.08-1-.12-1.62-.12-1.62h.07a9.2,9.2,0,0,1,3.08,1C101.56,41.6,103.87,49.49,102.45,52.54Z" transform="translate(0 -1.2)" fill="#faa31c"/>
      <path id="Path_1944" data-name="Path 1944" d="M94.35,43.89s2.73-1.2,2.77-1.3a2.14,2.14,0,0,0-.33-1,5.379,5.379,0,0,0,1.39,0,11.773,11.773,0,0,0,.14-1.5,2.17,2.17,0,0,0-1.22-.61s-.59,1.47-.81,1.9A13.62,13.62,0,0,1,94.35,43.89Z" transform="translate(0 -1.2)" fill="#e27f2b"/>
      <path id="Path_1945" data-name="Path 1945" d="M93.71,41.52a9,9,0,0,0,.64,2.37,7.88,7.88,0,0,1-1.54-1.32c-.12-.32.34-1,.34-1s-.84,0-.86-.3a9.19,9.19,0,0,1,.26-1.39s.73-.54.93-.52Z" transform="translate(0 -1.2)" fill="#e27f2b"/>
      <path id="Path_1946" data-name="Path 1946" d="M98.32,33.77l-6,.07a4.66,4.66,0,0,1,1-3l.15-.15A2.74,2.74,0,0,1,97,30.6a1.241,1.241,0,0,1,.18.14,3.9,3.9,0,0,1,.53.54A4.43,4.43,0,0,1,98.32,33.77Z" transform="translate(0 -1.2)" fill="#faa31c"/>
      <path id="Path_1947" data-name="Path 1947" d="M96.62,33.79c0-.24-.13-2.34.61-3l-.1-.09c-.78.82-.85,2.87-.84,3.13H94.35a7.46,7.46,0,0,0-1-3.11l-.11.11a9.09,9.09,0,0,1,.73,3H92.24a13.59,13.59,0,0,0,2.82.4,21.05,21.05,0,0,0,3.23-.47Z" transform="translate(0 -1.2)" fill="#e27f2b"/>
      <path id="Path_1948" data-name="Path 1948" d="M104.78,50.89h1a14.78,14.78,0,0,1,5.32-1.3,9.38,9.38,0,0,1,3.8,1.29h-1a11.5,11.5,0,0,0-2.81-.88,14.42,14.42,0,0,0-3.41.84h5.55a.85.85,0,0,1,.84.84v6.33a.85.85,0,0,1-.84.85h-8.44a.85.85,0,0,1-.85-.85V51.73a.85.85,0,0,1,.84-.84Z" transform="translate(0 -1.2)" fill="#faa31c"/>
      <rect id="Rectangle_1552" data-name="Rectangle 1552" width="10.13" height="8.02" rx="0.84" transform="translate(106.68 49.69)" fill="#e27f2b"/>
      <rect id="Rectangle_1553" data-name="Rectangle 1553" width="44.9" height="31.67" transform="translate(17.69 18.17)" fill="#8093ca"/>
      <rect id="Rectangle_1554" data-name="Rectangle 1554" width="41.79" height="28.38" transform="translate(19.24 19.81)" fill="#35498c"/>
      <path id="Path_1949" data-name="Path 1949" d="M52.35,85h-1l-6.16-2.13a6.52,6.52,0,0,1-4.38-6.15V50.55a.69.69,0,0,0-.66-.7.68.68,0,0,0-.71.68V76.74a6.51,6.51,0,0,1-4.39,6.15L28.91,85H27.79a.69.69,0,0,0-.7.65.68.68,0,0,0,.68.72h4a.7.7,0,0,0,.7-.64.67.67,0,0,0-.14-.46l4.53-1.57a10.07,10.07,0,0,1,6.55,0l4.42,1.53a.68.68,0,0,0-.18.48.71.71,0,0,0,.71.66h4a.69.69,0,0,0,.69-.72A.7.7,0,0,0,52.35,85Z" transform="translate(0 -1.2)" fill="#8093ca"/>
      <rect id="Rectangle_1555" data-name="Rectangle 1555" width="0.59" height="31.67" transform="translate(62.59 18.17)" fill="#35498c"/>
      <rect id="Rectangle_1556" data-name="Rectangle 1556" width="1.37" height="1.27" transform="translate(39.46 49.84)" fill="#35498c"/>
      <path id="Path_1950" data-name="Path 1950" d="M57,46.16H55.18V42.37H57Zm-1.81-.06H57V42.42H55.23Z" transform="translate(0 -1.2)" fill="#fff"/>
      <path id="Path_1951" data-name="Path 1951" d="M55.75,46.16H55.7V38.82H53.59V30.38H51.53V35H49.82v1.68h-3v-1H45.5v-3.9H42V25.21l-2.69-.89v4.36h-.68V25.41l-2.69,1v3.85h-2.5V27.47H30.83v2.81h-.49v1.63H28.22v-.05h2.12V30.23h.5V27.42h2.71v2.81h2.43V26.39l2.79-1.06v3.29h.58V24.24l2.79.93v6.56h3.47V35.6H46.9v1h2.93V34.9h1.71V30.33H53.7v8.43h2.11Z" transform="translate(0 -1.2)" fill="#fff"/>
      <path id="Path_1952" data-name="Path 1952" d="M41.67,26.23h-1.9V25.5h1.9Zm-1.85-.06h1.8v-.62h-1.8Z" transform="translate(0 -1.2)" fill="#fff"/>
      <path id="Path_1953" data-name="Path 1953" d="M41.67,27.5h-1.9v-.73h1.9Zm-1.85-.05h1.8v-.63h-1.8Z" transform="translate(0 -1.2)" fill="#fff"/>
      <path id="Path_1954" data-name="Path 1954" d="M41.67,28.64h-1.9v-.73h1.9Zm-1.85-.05h1.8V28h-1.8Z" transform="translate(0 -1.2)" fill="#fff"/>
      <path id="Path_1955" data-name="Path 1955" d="M53.64,34.5H51.88V33.41h1.76Zm-1.71,0h1.66v-1H51.93Z" transform="translate(0 -1.2)" fill="#fff"/>
      <path id="Path_1956" data-name="Path 1956" d="M53.64,37.71H51.46V36.62h2.18Zm-2.13-.05h2.08v-1H51.51Z" transform="translate(0 -1.2)" fill="#fff"/>
      <path id="Path_1957" data-name="Path 1957" d="M53.64,39.29H51.46v-1.1h2.18Zm-2.13,0h2.08v-1H51.51Z" transform="translate(0 -1.2)" fill="#fff"/>
      <path id="Path_1958" data-name="Path 1958" d="M53.67,41H51.49V39.9h2.18Zm-2.12-.06h2.07v-1H51.55Z" transform="translate(0 -1.2)" fill="#fff"/>
      <path id="Path_1959" data-name="Path 1959" d="M53.67,42.56H51.49v-1.1h2.18Zm-2.12-.05h2.07v-1H51.55Z" transform="translate(0 -1.2)" fill="#fff"/>
      <path id="Path_1960" data-name="Path 1960" d="M53.67,44.22H51.49v-1.1h2.18Zm-2.12-.06h2.07v-1H51.55Z" transform="translate(0 -1.2)" fill="#fff"/>
      <path id="Path_1961" data-name="Path 1961" d="M38.35,28.64h-2v-.73h2Zm-1.94-.05H38.3V28H36.41Z" transform="translate(0 -1.2)" fill="#fff"/>
      <path id="Path_1962" data-name="Path 1962" d="M38.35,27.51h-2v-.73h2Zm-1.94-.05H38.3v-.63H36.41Z" transform="translate(0 -1.2)" fill="#fff"/>
      <path id="Path_1963" data-name="Path 1963" d="M41.72,29.75H36.36V29h5.36Zm-5.31-.05h5.26v-.62H36.41Z" transform="translate(0 -1.2)" fill="#fff"/>
      <path id="Path_1964" data-name="Path 1964" d="M41.72,30.77H36.36V30h5.36Zm-5.31-.05h5.26v-.63H36.41Z" transform="translate(0 -1.2)" fill="#fff"/>
      <path id="Path_1965" data-name="Path 1965" d="M41.72,31.76H36.36v-.71h5.36Zm-5.31-.06h5.26v-.59H36.41Z" transform="translate(0 -1.2)" fill="#fff"/>
      <path id="Path_1966" data-name="Path 1966" d="M53.64,36.13H51.46V35h2.18Zm-2.13-.05h2.08v-1H51.51Z" transform="translate(0 -1.2)" fill="#fff"/>
      <path id="Path_1967" data-name="Path 1967" d="M45,33.07h-.5v-.71H45Zm-.47,0H45v-.61h-.41Z" transform="translate(0 -1.2)" fill="#fff"/>
      <path id="Path_1968" data-name="Path 1968" d="M44.15,33.07h-.52v-.71h.52Zm-.47,0h.42v-.61h-.42Z" transform="translate(0 -1.2)" fill="#fff"/>
      <path id="Path_1969" data-name="Path 1969" d="M43.3,33.07h-.52v-.71h.52Zm-.47,0h.42v-.61h-.42Z" transform="translate(0 -1.2)" fill="#fff"/>
      <path id="Path_1970" data-name="Path 1970" d="M42.49,33.07H42v-.71h.51ZM42,33h.41v-.61H42Z" transform="translate(0 -1.2)" fill="#fff"/>
      <path id="Path_1971" data-name="Path 1971" d="M41.67,33.07h-.52v-.71h.52Zm-.46,0h.41v-.61h-.41Z" transform="translate(0 -1.2)" fill="#fff"/>
      <path id="Path_1972" data-name="Path 1972" d="M40.84,33.07h-.52v-.71h.52Zm-.46,0h.41v-.61h-.41Z" transform="translate(0 -1.2)" fill="#fff"/>
      <path id="Path_1973" data-name="Path 1973" d="M40,33.07h-.52v-.71H40Zm-.46,0h.41v-.61h-.41Z" transform="translate(0 -1.2)" fill="#fff"/>
      <path id="Path_1974" data-name="Path 1974" d="M39.12,33.07h-.51v-.71h.51Zm-.46,0h.41v-.61h-.41Z" transform="translate(0 -1.2)" fill="#fff"/>
      <path id="Path_1975" data-name="Path 1975" d="M38.32,33.07H37.8v-.71h.52Zm-.47,0h.41v-.61h-.41Z" transform="translate(0 -1.2)" fill="#fff"/>
      <path id="Path_1976" data-name="Path 1976" d="M37.5,33.07H37v-.71h.52ZM37,33h.41v-.61H37Z" transform="translate(0 -1.2)" fill="#fff"/>
      <path id="Path_1977" data-name="Path 1977" d="M36.64,33.07h-.52v-.71h.52Zm-.46,0h.41v-.61h-.41Z" transform="translate(0 -1.2)" fill="#fff"/>
      <path id="Path_1978" data-name="Path 1978" d="M35.77,33.07h-.52v-.71h.52Zm-.46,0h.41v-.61h-.41Z" transform="translate(0 -1.2)" fill="#fff"/>
      <path id="Path_1979" data-name="Path 1979" d="M34.92,33.07H34.4v-.71h.52Zm-.46,0h.41v-.61h-.41Z" transform="translate(0 -1.2)" fill="#fff"/>
      <path id="Path_1980" data-name="Path 1980" d="M34.12,33.07H33.6v-.71h.52Zm-.47,0h.41v-.61h-.41Z" transform="translate(0 -1.2)" fill="#fff"/>
      <path id="Path_1981" data-name="Path 1981" d="M33.3,33.07h-.52v-.71h.52Zm-.47,0h.41v-.61h-.41Z" transform="translate(0 -1.2)" fill="#fff"/>
      <path id="Path_1982" data-name="Path 1982" d="M32.46,33.07H32v-.71h.51ZM32,33h.41v-.61H32Z" transform="translate(0 -1.2)" fill="#fff"/>
      <path id="Path_1983" data-name="Path 1983" d="M31.6,33.07h-.52v-.71h.52Zm-.47,0h.41v-.61h-.41Z" transform="translate(0 -1.2)" fill="#fff"/>
      <path id="Path_1984" data-name="Path 1984" d="M30.75,33.07h-.52v-.71h.52Zm-.47,0h.41v-.61h-.41Z" transform="translate(0 -1.2)" fill="#fff"/>
      <path id="Path_1985" data-name="Path 1985" d="M29.94,33.07h-.52v-.71h.52Zm-.46,0h.41v-.61h-.41Z" transform="translate(0 -1.2)" fill="#fff"/>
      <path id="Path_1986" data-name="Path 1986" d="M29.12,33.07H28.6v-.71h.52Zm-.47,0h.42v-.61h-.42Z" transform="translate(0 -1.2)" fill="#fff"/>
      <path id="Path_1987" data-name="Path 1987" d="M45,34.23h-.5v-.71H45Zm-.47-.06H45v-.6h-.41Z" transform="translate(0 -1.2)" fill="#fff"/>
      <path id="Path_1988" data-name="Path 1988" d="M44.15,34.23h-.52v-.71h.52Zm-.47-.06h.42v-.6h-.42Z" transform="translate(0 -1.2)" fill="#fff"/>
      <path id="Path_1989" data-name="Path 1989" d="M43.3,34.23h-.52v-.71h.52Zm-.47-.06h.42v-.6h-.42Z" transform="translate(0 -1.2)" fill="#fff"/>
      <path id="Path_1990" data-name="Path 1990" d="M42.49,34.23H42v-.71h.51ZM42,34.17h.41v-.6H42Z" transform="translate(0 -1.2)" fill="#fff"/>
      <path id="Path_1991" data-name="Path 1991" d="M41.67,34.23h-.52v-.71h.52Zm-.46-.06h.41v-.6h-.41Z" transform="translate(0 -1.2)" fill="#fff"/>
      <path id="Path_1992" data-name="Path 1992" d="M40.84,34.23h-.52v-.71h.52Zm-.46-.06h.41v-.6h-.41Z" transform="translate(0 -1.2)" fill="#fff"/>
      <path id="Path_1993" data-name="Path 1993" d="M40,34.23h-.52v-.71H40Zm-.46-.06h.41v-.6h-.41Z" transform="translate(0 -1.2)" fill="#fff"/>
      <path id="Path_1994" data-name="Path 1994" d="M39.12,34.23h-.51v-.71h.51Zm-.46-.06h.41v-.6h-.41Z" transform="translate(0 -1.2)" fill="#fff"/>
      <path id="Path_1995" data-name="Path 1995" d="M38.32,34.23H37.8v-.71h.52Zm-.47-.06h.41v-.6h-.41Z" transform="translate(0 -1.2)" fill="#fff"/>
      <path id="Path_1996" data-name="Path 1996" d="M37.5,34.23H37v-.71h.52Zm-.5-.06h.41v-.6H37Z" transform="translate(0 -1.2)" fill="#fff"/>
      <path id="Path_1997" data-name="Path 1997" d="M36.64,34.23h-.52v-.71h.52Zm-.46-.06h.41v-.6h-.41Z" transform="translate(0 -1.2)" fill="#fff"/>
      <path id="Path_1998" data-name="Path 1998" d="M35.77,34.23h-.52v-.71h.52Zm-.46-.06h.41v-.6h-.41Z" transform="translate(0 -1.2)" fill="#fff"/>
      <path id="Path_1999" data-name="Path 1999" d="M34.92,34.23H34.4v-.71h.52Zm-.46-.06h.41v-.6h-.41Z" transform="translate(0 -1.2)" fill="#fff"/>
      <path id="Path_2000" data-name="Path 2000" d="M34.12,34.23H33.6v-.71h.52Zm-.47-.06h.41v-.6h-.41Z" transform="translate(0 -1.2)" fill="#fff"/>
      <path id="Path_2001" data-name="Path 2001" d="M33.3,34.23h-.52v-.71h.52Zm-.47-.06h.41v-.6h-.41Z" transform="translate(0 -1.2)" fill="#fff"/>
      <path id="Path_2002" data-name="Path 2002" d="M32.46,34.23H32v-.71h.51ZM32,34.17h.41v-.6H32Z" transform="translate(0 -1.2)" fill="#fff"/>
      <path id="Path_2003" data-name="Path 2003" d="M31.6,34.23h-.52v-.71h.52Zm-.47-.06h.41v-.6h-.41Z" transform="translate(0 -1.2)" fill="#fff"/>
      <path id="Path_2004" data-name="Path 2004" d="M30.75,34.23h-.52v-.71h.52Zm-.47-.06h.41v-.6h-.41Z" transform="translate(0 -1.2)" fill="#fff"/>
      <path id="Path_2005" data-name="Path 2005" d="M29.94,34.23h-.52v-.71h.52Zm-.46-.06h.41v-.6h-.41Z" transform="translate(0 -1.2)" fill="#fff"/>
      <path id="Path_2006" data-name="Path 2006" d="M29.12,34.23H28.6v-.71h.52Zm-.47-.06h.42v-.6h-.42Z" transform="translate(0 -1.2)" fill="#fff"/>
      <path id="Path_2007" data-name="Path 2007" d="M45,35.36h-.5v-.7H45Zm-.47,0H45v-.6h-.41Z" transform="translate(0 -1.2)" fill="#fff"/>
      <path id="Path_2008" data-name="Path 2008" d="M44.15,35.36h-.52v-.7h.52Zm-.47,0h.42v-.6h-.42Z" transform="translate(0 -1.2)" fill="#fff"/>
      <path id="Path_2009" data-name="Path 2009" d="M43.3,35.36h-.52v-.7h.52Zm-.47,0h.42v-.6h-.42Z" transform="translate(0 -1.2)" fill="#fff"/>
      <path id="Path_2010" data-name="Path 2010" d="M42.49,35.36H42v-.7h.51Zm-.46,0h.41v-.6H42Z" transform="translate(0 -1.2)" fill="#fff"/>
      <path id="Path_2011" data-name="Path 2011" d="M41.67,35.36h-.52v-.7h.52Zm-.46,0h.41v-.6h-.41Z" transform="translate(0 -1.2)" fill="#fff"/>
      <path id="Path_2012" data-name="Path 2012" d="M40.84,35.36h-.52v-.7h.52Zm-.46,0h.41v-.6h-.41Z" transform="translate(0 -1.2)" fill="#fff"/>
      <path id="Path_2013" data-name="Path 2013" d="M40,35.36h-.52v-.7H40Zm-.46,0h.41v-.6h-.41Z" transform="translate(0 -1.2)" fill="#fff"/>
      <path id="Path_2014" data-name="Path 2014" d="M39.12,35.36h-.51v-.7h.51Zm-.46,0h.41v-.6h-.41Z" transform="translate(0 -1.2)" fill="#fff"/>
      <path id="Path_2015" data-name="Path 2015" d="M38.32,35.36H37.8v-.7h.52Zm-.47,0h.41v-.6h-.41Z" transform="translate(0 -1.2)" fill="#fff"/>
      <path id="Path_2016" data-name="Path 2016" d="M37.5,35.36H37v-.7h.52Zm-.47,0h.41v-.6H37Z" transform="translate(0 -1.2)" fill="#fff"/>
      <path id="Path_2017" data-name="Path 2017" d="M36.64,35.36h-.52v-.7h.52Zm-.46,0h.41v-.6h-.41Z" transform="translate(0 -1.2)" fill="#fff"/>
      <path id="Path_2018" data-name="Path 2018" d="M35.77,35.36h-.52v-.7h.52Zm-.46,0h.41v-.6h-.41Z" transform="translate(0 -1.2)" fill="#fff"/>
      <path id="Path_2019" data-name="Path 2019" d="M34.92,35.36H34.4v-.7h.52Zm-.46,0h.41v-.6h-.41Z" transform="translate(0 -1.2)" fill="#fff"/>
      <path id="Path_2020" data-name="Path 2020" d="M34.12,35.36H33.6v-.7h.52Zm-.47,0h.41v-.6h-.41Z" transform="translate(0 -1.2)" fill="#fff"/>
      <path id="Path_2021" data-name="Path 2021" d="M33.3,35.36h-.52v-.7h.52Zm-.47,0h.41v-.6h-.41Z" transform="translate(0 -1.2)" fill="#fff"/>
      <path id="Path_2022" data-name="Path 2022" d="M32.46,35.36H32v-.7h.51Zm-.46,0h.41v-.6H32Z" transform="translate(0 -1.2)" fill="#fff"/>
      <path id="Path_2023" data-name="Path 2023" d="M31.6,35.36h-.52v-.7h.52Zm-.47,0h.41v-.6h-.41Z" transform="translate(0 -1.2)" fill="#fff"/>
      <path id="Path_2024" data-name="Path 2024" d="M30.75,35.36h-.52v-.7h.52Zm-.47,0h.41v-.6h-.41Z" transform="translate(0 -1.2)" fill="#fff"/>
      <path id="Path_2025" data-name="Path 2025" d="M29.94,35.36h-.52v-.7h.52Zm-.46,0h.41v-.6h-.41Z" transform="translate(0 -1.2)" fill="#fff"/>
      <path id="Path_2026" data-name="Path 2026" d="M29.12,35.36H28.6v-.7h.52Zm-.47,0h.42v-.6h-.42Z" transform="translate(0 -1.2)" fill="#fff"/>
      <path id="Path_2027" data-name="Path 2027" d="M45,36.57h-.5v-.71H45Zm-.47,0H45v-.6h-.41Z" transform="translate(0 -1.2)" fill="#fff"/>
      <path id="Path_2028" data-name="Path 2028" d="M44.15,36.57h-.52v-.71h.52Zm-.47,0h.42v-.6h-.42Z" transform="translate(0 -1.2)" fill="#fff"/>
      <path id="Path_2029" data-name="Path 2029" d="M43.3,36.57h-.52v-.71h.52Zm-.47,0h.42v-.6h-.42Z" transform="translate(0 -1.2)" fill="#fff"/>
      <path id="Path_2030" data-name="Path 2030" d="M42.49,36.57H42v-.71h.51Zm-.46,0h.41v-.6H42Z" transform="translate(0 -1.2)" fill="#fff"/>
      <path id="Path_2031" data-name="Path 2031" d="M41.67,36.57h-.52v-.71h.52Zm-.46,0h.41v-.6h-.41Z" transform="translate(0 -1.2)" fill="#fff"/>
      <path id="Path_2032" data-name="Path 2032" d="M40.84,36.57h-.52v-.71h.52Zm-.46,0h.41v-.6h-.41Z" transform="translate(0 -1.2)" fill="#fff"/>
      <path id="Path_2033" data-name="Path 2033" d="M40,36.57h-.52v-.71H40Zm-.46,0h.41v-.6h-.41Z" transform="translate(0 -1.2)" fill="#fff"/>
      <path id="Path_2034" data-name="Path 2034" d="M39.12,36.57h-.51v-.71h.51Zm-.46,0h.41v-.6h-.41Z" transform="translate(0 -1.2)" fill="#fff"/>
      <path id="Path_2035" data-name="Path 2035" d="M38.32,36.57H37.8v-.71h.52Zm-.47,0h.41v-.6h-.41Z" transform="translate(0 -1.2)" fill="#fff"/>
      <path id="Path_2036" data-name="Path 2036" d="M37.5,36.57H37v-.71h.52Zm-.47,0h.41v-.6H37Z" transform="translate(0 -1.2)" fill="#fff"/>
      <path id="Path_2037" data-name="Path 2037" d="M36.64,36.57h-.52v-.71h.52Zm-.46,0h.41v-.6h-.41Z" transform="translate(0 -1.2)" fill="#fff"/>
      <path id="Path_2038" data-name="Path 2038" d="M35.77,36.57h-.52v-.71h.52Zm-.46,0h.41v-.6h-.41Z" transform="translate(0 -1.2)" fill="#fff"/>
      <path id="Path_2039" data-name="Path 2039" d="M34.92,36.57H34.4v-.71h.52Zm-.46,0h.41v-.6h-.41Z" transform="translate(0 -1.2)" fill="#fff"/>
      <path id="Path_2040" data-name="Path 2040" d="M34.12,36.57H33.6v-.71h.52Zm-.47,0h.41v-.6h-.41Z" transform="translate(0 -1.2)" fill="#fff"/>
      <path id="Path_2041" data-name="Path 2041" d="M33.3,36.57h-.52v-.71h.52Zm-.47,0h.41v-.6h-.41Z" transform="translate(0 -1.2)" fill="#fff"/>
      <path id="Path_2042" data-name="Path 2042" d="M32.46,36.57H32v-.71h.51Zm-.46,0h.41v-.6H32Z" transform="translate(0 -1.2)" fill="#fff"/>
      <path id="Path_2043" data-name="Path 2043" d="M31.6,36.57h-.52v-.71h.52Zm-.47,0h.41v-.6h-.41Z" transform="translate(0 -1.2)" fill="#fff"/>
      <path id="Path_2044" data-name="Path 2044" d="M30.75,36.57h-.52v-.71h.52Zm-.47,0h.41v-.6h-.41Z" transform="translate(0 -1.2)" fill="#fff"/>
      <path id="Path_2045" data-name="Path 2045" d="M29.94,36.57h-.52v-.71h.52Zm-.46,0h.41v-.6h-.41Z" transform="translate(0 -1.2)" fill="#fff"/>
      <path id="Path_2046" data-name="Path 2046" d="M29.12,36.57H28.6v-.71h.52Zm-.47,0h.42v-.6h-.42Z" transform="translate(0 -1.2)" fill="#fff"/>
      <path id="Path_2047" data-name="Path 2047" d="M45,37.73h-.5V37H45Zm-.47,0H45v-.61h-.41Z" transform="translate(0 -1.2)" fill="#fff"/>
      <path id="Path_2048" data-name="Path 2048" d="M44.15,37.73h-.52V37h.52Zm-.47,0h.42v-.61h-.42Z" transform="translate(0 -1.2)" fill="#fff"/>
      <path id="Path_2049" data-name="Path 2049" d="M43.3,37.73h-.52V37h.52Zm-.47,0h.42v-.61h-.42Z" transform="translate(0 -1.2)" fill="#fff"/>
      <path id="Path_2050" data-name="Path 2050" d="M42.49,37.73H42V37h.51Zm-.46,0h.41v-.61H42Z" transform="translate(0 -1.2)" fill="#fff"/>
      <path id="Path_2051" data-name="Path 2051" d="M41.67,37.73h-.52V37h.52Zm-.46,0h.41v-.61h-.41Z" transform="translate(0 -1.2)" fill="#fff"/>
      <path id="Path_2052" data-name="Path 2052" d="M40.84,37.73h-.52V37h.52Zm-.46,0h.41v-.61h-.41Z" transform="translate(0 -1.2)" fill="#fff"/>
      <path id="Path_2053" data-name="Path 2053" d="M40,37.73h-.52V37H40Zm-.46,0h.41v-.61h-.41Z" transform="translate(0 -1.2)" fill="#fff"/>
      <path id="Path_2054" data-name="Path 2054" d="M39.12,37.73h-.51V37h.51Zm-.46,0h.41v-.61h-.41Z" transform="translate(0 -1.2)" fill="#fff"/>
      <path id="Path_2055" data-name="Path 2055" d="M38.32,37.73H37.8V37h.52Zm-.47,0h.41v-.61h-.41Z" transform="translate(0 -1.2)" fill="#fff"/>
      <path id="Path_2056" data-name="Path 2056" d="M37.5,37.73H37V37h.52Zm-.47,0h.41v-.61H37Z" transform="translate(0 -1.2)" fill="#fff"/>
      <path id="Path_2057" data-name="Path 2057" d="M36.64,37.73h-.52V37h.52Zm-.46,0h.41v-.61h-.41Z" transform="translate(0 -1.2)" fill="#fff"/>
      <path id="Path_2058" data-name="Path 2058" d="M35.77,37.73h-.52V37h.52Zm-.46,0h.41v-.61h-.41Z" transform="translate(0 -1.2)" fill="#fff"/>
      <path id="Path_2059" data-name="Path 2059" d="M34.92,37.73H34.4V37h.52Zm-.46,0h.41v-.61h-.41Z" transform="translate(0 -1.2)" fill="#fff"/>
      <path id="Path_2060" data-name="Path 2060" d="M34.12,37.73H33.6V37h.52Zm-.47,0h.41v-.61h-.41Z" transform="translate(0 -1.2)" fill="#fff"/>
      <path id="Path_2061" data-name="Path 2061" d="M33.3,37.73h-.52V37h.52Zm-.47,0h.41v-.61h-.41Z" transform="translate(0 -1.2)" fill="#fff"/>
      <path id="Path_2062" data-name="Path 2062" d="M32.46,37.73H32V37h.51Zm-.46,0h.41v-.61H32Z" transform="translate(0 -1.2)" fill="#fff"/>
      <path id="Path_2063" data-name="Path 2063" d="M31.6,37.73h-.52V37h.52Zm-.47,0h.41v-.61h-.41Z" transform="translate(0 -1.2)" fill="#fff"/>
      <path id="Path_2064" data-name="Path 2064" d="M29.94,37.73h-.48V37h.52Zm-.46,0h.41v-.61h-.41Z" transform="translate(0 -1.2)" fill="#fff"/>
      <path id="Path_2065" data-name="Path 2065" d="M30.75,37.73h-.52V37h.52Zm-.47,0h.41v-.61h-.41Z" transform="translate(0 -1.2)" fill="#fff"/>
      <path id="Path_2066" data-name="Path 2066" d="M29.12,37.67l-.52-.09V37h.52Zm-.47-.13.42.07v-.54h-.42Z" transform="translate(0 -1.2)" fill="#fff"/>
      <path id="Path_2067" data-name="Path 2067" d="M45,38.87h-.5v-.71H45Zm-.47-.06H45v-.6h-.41Z" transform="translate(0 -1.2)" fill="#fff"/>
      <path id="Path_2068" data-name="Path 2068" d="M44.15,38.87h-.52v-.71h.52Zm-.47-.06h.42v-.6h-.42Z" transform="translate(0 -1.2)" fill="#fff"/>
      <path id="Path_2069" data-name="Path 2069" d="M43.3,38.87h-.52v-.71h.52Zm-.47-.06h.42v-.6h-.42Z" transform="translate(0 -1.2)" fill="#fff"/>
      <path id="Path_2070" data-name="Path 2070" d="M42.49,38.87H42v-.71h.51ZM42,38.81h.41v-.6H42Z" transform="translate(0 -1.2)" fill="#fff"/>
      <path id="Path_2071" data-name="Path 2071" d="M41.67,38.87h-.52v-.71h.52Zm-.46-.06h.41v-.6h-.41Z" transform="translate(0 -1.2)" fill="#fff"/>
      <path id="Path_2072" data-name="Path 2072" d="M40.84,38.87h-.52v-.71h.52Zm-.46-.06h.41v-.6h-.41Z" transform="translate(0 -1.2)" fill="#fff"/>
      <path id="Path_2073" data-name="Path 2073" d="M40,38.87h-.52v-.71H40Zm-.46-.06h.41v-.6h-.41Z" transform="translate(0 -1.2)" fill="#fff"/>
      <path id="Path_2074" data-name="Path 2074" d="M39.12,38.87h-.51v-.71h.51Zm-.46-.06h.41v-.6h-.41Z" transform="translate(0 -1.2)" fill="#fff"/>
      <path id="Path_2075" data-name="Path 2075" d="M38.32,38.87H37.8v-.71h.52Zm-.47-.06h.41v-.6h-.41Z" transform="translate(0 -1.2)" fill="#fff"/>
      <path id="Path_2076" data-name="Path 2076" d="M37.5,38.87H37v-.71h.52Zm-.5-.06h.41v-.6H37Z" transform="translate(0 -1.2)" fill="#fff"/>
      <path id="Path_2077" data-name="Path 2077" d="M36.64,38.87h-.52v-.71h.52Zm-.46-.06h.41v-.6h-.41Z" transform="translate(0 -1.2)" fill="#fff"/>
      <path id="Path_2078" data-name="Path 2078" d="M35.77,38.87h-.52v-.71h.52Zm-.46-.06h.41v-.6h-.41Z" transform="translate(0 -1.2)" fill="#fff"/>
      <path id="Path_2079" data-name="Path 2079" d="M34.92,38.87H34.4v-.71h.52Zm-.46-.06h.41v-.6h-.41Z" transform="translate(0 -1.2)" fill="#fff"/>
      <path id="Path_2080" data-name="Path 2080" d="M34.12,38.87H33.6v-.71h.52Zm-.47-.06h.41v-.6h-.41Z" transform="translate(0 -1.2)" fill="#fff"/>
      <path id="Path_2081" data-name="Path 2081" d="M33.3,38.87h-.52v-.71h.52Zm-.47-.06h.41v-.6h-.41Z" transform="translate(0 -1.2)" fill="#fff"/>
      <path id="Path_2082" data-name="Path 2082" d="M32.46,38.87H32v-.71h.51ZM32,38.81h.41v-.6H32Z" transform="translate(0 -1.2)" fill="#fff"/>
      <path id="Path_2083" data-name="Path 2083" d="M31.6,38.87h-.52v-.71h.52Zm-.47-.06h.41v-.6h-.41Z" transform="translate(0 -1.2)" fill="#fff"/>
      <path id="Path_2084" data-name="Path 2084" d="M24.76,41.18H23.67V36.86h1.09Zm-1,0h1V36.92h-1Z" transform="translate(0 -1.2)" fill="#fff"/>
      <path id="Path_2085" data-name="Path 2085" d="M49.82,36.63H48.19V34.89H49V33.53h.1v1.36h.76Zm-1.58-.05h1.53V35H48.23Z" transform="translate(0 -1.2)" fill="#fff"/>
      <path id="Path_2086" data-name="Path 2086" d="M50.68,35V30.33h.39v-.46h.11v.46h1.91v-.46h.11v.46h.44v1.1H51.93v.46h1.71V33H51.53v2Zm0-4.57V34.9h.75v-2h2.11v-1H51.88v-.56h1.71v-1H51.14ZM53.56,31.43Z" transform="translate(0 -1.2)" fill="#fff"/>
      <path id="Path_2087" data-name="Path 2087" d="M30.66,43.83h0v-5.9l-5.9-1h0l6,1v5.92A.866.866,0,0,0,30.66,43.83Z" transform="translate(0 -1.2)" fill="#fff"/>
      <path id="Path_2088" data-name="Path 2088" d="M30.69,46.16H23.24v-5h7.45Zm-7.4-.06h7.34V41.18H23.29Z" transform="translate(0 -1.2)" fill="#fff"/>
      <path id="Path_2089" data-name="Path 2089" d="M30.69,39.82H23.24V38.15h7.45Zm-7.4,0h7.34V38.21H23.29Z" transform="translate(0 -1.2)" fill="#fff"/>
      <path id="Path_2090" data-name="Path 2090" d="M30.18,43h-.43v-.59h.43Zm-.38,0h.33v-.5H29.8Z" transform="translate(0 -1.2)" fill="#fff"/>
      <path id="Path_2091" data-name="Path 2091" d="M29.47,43H29v-.59h.43Zm-.38,0h.33v-.5h-.33Z" transform="translate(0 -1.2)" fill="#fff"/>
      <path id="Path_2092" data-name="Path 2092" d="M28.78,43h-.43v-.59h.43Zm-.38,0h.33v-.5H28.4Z" transform="translate(0 -1.2)" fill="#fff"/>
      <path id="Path_2093" data-name="Path 2093" d="M28.12,43h-.43v-.59h.43Zm-.38,0h.33v-.5h-.33Z" transform="translate(0 -1.2)" fill="#fff"/>
      <path id="Path_2094" data-name="Path 2094" d="M27.45,43H27v-.59h.43Zm-.38,0h.33v-.5h-.33Z" transform="translate(0 -1.2)" fill="#fff"/>
      <path id="Path_2095" data-name="Path 2095" d="M26.77,43h-.43v-.59h.43Zm-.38,0h.33v-.5h-.33Z" transform="translate(0 -1.2)" fill="#fff"/>
      <path id="Path_2096" data-name="Path 2096" d="M26.06,43h-.43v-.59h.43Zm-.38,0H26v-.5h-.33Z" transform="translate(0 -1.2)" fill="#fff"/>
      <path id="Path_2097" data-name="Path 2097" d="M25.37,43h-.44v-.59h.44ZM25,43h.32v-.5H25Z" transform="translate(0 -1.2)" fill="#fff"/>
      <path id="Path_2098" data-name="Path 2098" d="M24.71,43h-.44v-.59h.44Zm-.38,0h.32v-.5h-.32Z" transform="translate(0 -1.2)" fill="#fff"/>
      <path id="Path_2099" data-name="Path 2099" d="M24,43h-.4v-.59H24Zm-.34,0H24v-.5h-.32Z" transform="translate(0 -1.2)" fill="#fff"/>
      <path id="Path_2100" data-name="Path 2100" d="M30.18,44h-.43v-.59h.43Zm-.38,0h.33v-.48H29.8Z" transform="translate(0 -1.2)" fill="#fff"/>
      <path id="Path_2101" data-name="Path 2101" d="M29.47,44H29v-.59h.43Zm-.38,0h.33v-.48h-.33Z" transform="translate(0 -1.2)" fill="#fff"/>
      <path id="Path_2102" data-name="Path 2102" d="M28.78,44h-.43v-.59h.43Zm-.38,0h.33v-.48H28.4Z" transform="translate(0 -1.2)" fill="#fff"/>
      <path id="Path_2103" data-name="Path 2103" d="M28.12,44h-.43v-.59h.43Zm-.38,0h.33v-.48h-.33Z" transform="translate(0 -1.2)" fill="#fff"/>
      <path id="Path_2104" data-name="Path 2104" d="M27.45,44H27v-.59h.43Zm-.38,0h.33v-.48h-.33Z" transform="translate(0 -1.2)" fill="#fff"/>
      <path id="Path_2105" data-name="Path 2105" d="M26.77,44h-.43v-.59h.43Zm-.38,0h.33v-.48h-.33Z" transform="translate(0 -1.2)" fill="#fff"/>
      <path id="Path_2106" data-name="Path 2106" d="M26.06,44h-.43v-.59h.43Zm-.38,0H26v-.48h-.33Z" transform="translate(0 -1.2)" fill="#fff"/>
      <path id="Path_2107" data-name="Path 2107" d="M25.37,44h-.44v-.59h.44Zm-.38,0h.32v-.48H25Z" transform="translate(0 -1.2)" fill="#fff"/>
      <path id="Path_2108" data-name="Path 2108" d="M24.71,44h-.44v-.59h.44Zm-.38,0h.32v-.48h-.32Z" transform="translate(0 -1.2)" fill="#fff"/>
      <path id="Path_2109" data-name="Path 2109" d="M24,44h-.4v-.59H24Zm-.38,0H24v-.48h-.32Z" transform="translate(0 -1.2)" fill="#fff"/>
      <path id="Path_2110" data-name="Path 2110" d="M30.18,40.76h-.43v-.59h.43Zm-.38,0h.33v-.48H29.8Z" transform="translate(0 -1.2)" fill="#fff"/>
      <path id="Path_2111" data-name="Path 2111" d="M29.47,40.76H29v-.59h.43Zm-.38,0h.33v-.48h-.33Z" transform="translate(0 -1.2)" fill="#fff"/>
      <path id="Path_2112" data-name="Path 2112" d="M28.78,40.76h-.43v-.59h.43Zm-.38,0h.33v-.48H28.4Z" transform="translate(0 -1.2)" fill="#fff"/>
      <path id="Path_2113" data-name="Path 2113" d="M28.12,40.76h-.43v-.59h.43Zm-.38,0h.33v-.48h-.33Z" transform="translate(0 -1.2)" fill="#fff"/>
      <path id="Path_2114" data-name="Path 2114" d="M27.45,40.76H27v-.59h.43Zm-.38,0h.33v-.48h-.33Z" transform="translate(0 -1.2)" fill="#fff"/>
      <path id="Path_2115" data-name="Path 2115" d="M26.77,40.76h-.43v-.59h.43Zm-.38,0h.33v-.48h-.33Z" transform="translate(0 -1.2)" fill="#fff"/>
      <path id="Path_2116" data-name="Path 2116" d="M26.06,40.76h-.43v-.59h.43Zm-.38,0H26v-.48h-.33Z" transform="translate(0 -1.2)" fill="#fff"/>
      <path id="Path_2117" data-name="Path 2117" d="M25.37,40.76h-.44v-.59h.44Zm-.38,0h.32v-.48H25Z" transform="translate(0 -1.2)" fill="#fff"/>
      <path id="Path_2118" data-name="Path 2118" d="M30.18,42.08h-.43v-.59h.43ZM29.8,42h.33v-.48H29.8Z" transform="translate(0 -1.2)" fill="#fff"/>
      <path id="Path_2119" data-name="Path 2119" d="M29.47,42.08H29v-.59h.43ZM29.09,42h.33v-.48h-.33Z" transform="translate(0 -1.2)" fill="#fff"/>
      <path id="Path_2120" data-name="Path 2120" d="M28.78,42.08h-.43v-.59h.43ZM28.4,42h.33v-.48H28.4Z" transform="translate(0 -1.2)" fill="#fff"/>
      <path id="Path_2121" data-name="Path 2121" d="M28.12,42.08h-.43v-.59h.43ZM27.74,42h.33v-.48h-.33Z" transform="translate(0 -1.2)" fill="#fff"/>
      <path id="Path_2122" data-name="Path 2122" d="M27.45,42.08H27v-.59h.43ZM27.07,42h.33v-.48h-.33Z" transform="translate(0 -1.2)" fill="#fff"/>
      <path id="Path_2123" data-name="Path 2123" d="M26.77,42.08h-.43v-.59h.43ZM26.39,42h.33v-.48h-.33Z" transform="translate(0 -1.2)" fill="#fff"/>
      <path id="Path_2124" data-name="Path 2124" d="M26.06,42.08h-.43v-.59h.43ZM25.68,42H26v-.48h-.33Z" transform="translate(0 -1.2)" fill="#fff"/>
      <path id="Path_2125" data-name="Path 2125" d="M25.37,42.08h-.44v-.59h.44ZM25,42h.32v-.48H25Z" transform="translate(0 -1.2)" fill="#fff"/>
      <path id="Path_2126" data-name="Path 2126" d="M24.71,42.08h-.44v-.59h.44ZM24.33,42h.32v-.48h-.32Z" transform="translate(0 -1.2)" fill="#fff"/>
      <path id="Path_2127" data-name="Path 2127" d="M24,42.08h-.4v-.59H24ZM23.66,42H24v-.48h-.32Z" transform="translate(0 -1.2)" fill="#fff"/>
      <path id="Path_2128" data-name="Path 2128" d="M30.18,44.91h-.43v-.59h.43Zm-.38,0h.33v-.48H29.8Z" transform="translate(0 -1.2)" fill="#fff"/>
      <path id="Path_2129" data-name="Path 2129" d="M29.47,44.91H29v-.59h.43Zm-.38,0h.33v-.48h-.33Z" transform="translate(0 -1.2)" fill="#fff"/>
      <path id="Path_2130" data-name="Path 2130" d="M28.78,44.91h-.43v-.59h.43Zm-.38,0h.33v-.48H28.4Z" transform="translate(0 -1.2)" fill="#fff"/>
      <path id="Path_2131" data-name="Path 2131" d="M28.12,44.91h-.43v-.59h.43Zm-.38,0h.33v-.48h-.33Z" transform="translate(0 -1.2)" fill="#fff"/>
      <path id="Path_2132" data-name="Path 2132" d="M27.45,44.91H27v-.59h.43Zm-.38,0h.33v-.48h-.33Z" transform="translate(0 -1.2)" fill="#fff"/>
      <path id="Path_2133" data-name="Path 2133" d="M26.77,44.91h-.43v-.59h.43Zm-.38,0h.33v-.48h-.33Z" transform="translate(0 -1.2)" fill="#fff"/>
      <path id="Path_2134" data-name="Path 2134" d="M26.06,44.91h-.43v-.59h.43Zm-.38,0H26v-.48h-.33Z" transform="translate(0 -1.2)" fill="#fff"/>
      <path id="Path_2135" data-name="Path 2135" d="M25.37,44.91h-.44v-.59h.44Zm-.38,0h.32v-.48H25Z" transform="translate(0 -1.2)" fill="#fff"/>
      <path id="Path_2136" data-name="Path 2136" d="M24.71,44.91h-.44v-.59h.44Zm-.38,0h.32v-.48h-.32Z" transform="translate(0 -1.2)" fill="#fff"/>
      <path id="Path_2137" data-name="Path 2137" d="M24,44.91h-.4v-.59H24Zm-.38,0H24v-.48h-.32Z" transform="translate(0 -1.2)" fill="#fff"/>
      <path id="Path_2138" data-name="Path 2138" d="M25.27,37H25.1V35.75h.17Zm-.11-.07h.05V35.81h-.05Z" transform="translate(0 -1.2)" fill="#fff"/>
      <path id="Path_2139" data-name="Path 2139" d="M30.12,39.21h-.37v-.6h.37Zm-.32-.05h.27v-.5H29.8Z" transform="translate(0 -1.2)" fill="#fff"/>
      <path id="Path_2140" data-name="Path 2140" d="M27,39.21h-.37v-.6H27Zm-.32-.05h.27v-.5h-.27Z" transform="translate(0 -1.2)" fill="#fff"/>
      <path id="Path_2141" data-name="Path 2141" d="M24.43,39.21h-.37v-.6h.37Zm-.32-.05h.27v-.5h-.27Z" transform="translate(0 -1.2)" fill="#fff"/>
      <path id="Path_2142" data-name="Path 2142" d="M50.38,46.13H39.69V39.85H50.38Zm-10.64-.06H50.33V39.9H39.74Z" transform="translate(0 -1.2)" fill="#fff"/>
      <path id="Path_2143" data-name="Path 2143" d="M40.73,41.4H40.1v-.92h.63Zm-.57,0h.51v-.81h-.51Z" transform="translate(0 -1.2)" fill="#fff"/>
      <path id="Path_2144" data-name="Path 2144" d="M41.73,41.4h-.62v-.92h.62Zm-.57,0h.51v-.81h-.51Z" transform="translate(0 -1.2)" fill="#fff"/>
      <path id="Path_2145" data-name="Path 2145" d="M42.73,41.4h-.62v-.92h.62Zm-.56,0h.51v-.81h-.51Z" transform="translate(0 -1.2)" fill="#fff"/>
      <path id="Path_2146" data-name="Path 2146" d="M43.73,41.4h-.62v-.92h.62Zm-.56,0h.51v-.81h-.51Z" transform="translate(0 -1.2)" fill="#fff"/>
      <path id="Path_2147" data-name="Path 2147" d="M44.77,41.4h-.63v-.92h.63Zm-.57,0h.51v-.81H44.2Z" transform="translate(0 -1.2)" fill="#fff"/>
      <path id="Path_2148" data-name="Path 2148" d="M45.77,41.4h-.62v-.92h.62Zm-.57,0h.51v-.81H45.2Z" transform="translate(0 -1.2)" fill="#fff"/>
      <path id="Path_2149" data-name="Path 2149" d="M46.77,41.4h-.62v-.92h.62Zm-.56,0h.51v-.81h-.51Z" transform="translate(0 -1.2)" fill="#fff"/>
      <path id="Path_2150" data-name="Path 2150" d="M47.77,41.4h-.62v-.92h.62Zm-.56,0h.51v-.81h-.51Z" transform="translate(0 -1.2)" fill="#fff"/>
      <path id="Path_2151" data-name="Path 2151" d="M48.82,41.4H48.2v-.92h.62Zm-.56,0h.51v-.81h-.51Z" transform="translate(0 -1.2)" fill="#fff"/>
      <path id="Path_2152" data-name="Path 2152" d="M49.82,41.4H49.2v-.92h.62Zm-.56,0h.51v-.81h-.51Z" transform="translate(0 -1.2)" fill="#fff"/>
      <path id="Path_2153" data-name="Path 2153" d="M40.73,42.69H40.1v-.92h.63Zm-.57-.06h.51v-.81h-.51Z" transform="translate(0 -1.2)" fill="#fff"/>
      <path id="Path_2154" data-name="Path 2154" d="M41.73,42.69h-.62v-.92h.62Zm-.57-.06h.51v-.81h-.51Z" transform="translate(0 -1.2)" fill="#fff"/>
      <path id="Path_2155" data-name="Path 2155" d="M42.73,42.69h-.62v-.92h.62Zm-.56-.06h.51v-.81h-.51Z" transform="translate(0 -1.2)" fill="#fff"/>
      <path id="Path_2156" data-name="Path 2156" d="M43.73,42.69h-.62v-.92h.62Zm-.56-.06h.51v-.81h-.51Z" transform="translate(0 -1.2)" fill="#fff"/>
      <path id="Path_2157" data-name="Path 2157" d="M44.77,42.69h-.63v-.92h.63Zm-.57-.06h.51v-.81H44.2Z" transform="translate(0 -1.2)" fill="#fff"/>
      <path id="Path_2158" data-name="Path 2158" d="M45.77,42.69h-.62v-.92h.62Zm-.57-.06h.51v-.81H45.2Z" transform="translate(0 -1.2)" fill="#fff"/>
      <path id="Path_2159" data-name="Path 2159" d="M46.77,42.69h-.62v-.92h.62Zm-.56-.06h.51v-.81h-.51Z" transform="translate(0 -1.2)" fill="#fff"/>
      <path id="Path_2160" data-name="Path 2160" d="M47.77,42.69h-.62v-.92h.62Zm-.56-.06h.51v-.81h-.51Z" transform="translate(0 -1.2)" fill="#fff"/>
      <path id="Path_2161" data-name="Path 2161" d="M48.82,42.69H48.2v-.92h.62Zm-.56-.06h.51v-.81h-.51Z" transform="translate(0 -1.2)" fill="#fff"/>
      <path id="Path_2162" data-name="Path 2162" d="M49.82,42.69H49.2v-.92h.62Zm-.56-.06h.51v-.81h-.51Z" transform="translate(0 -1.2)" fill="#fff"/>
      <path id="Path_2163" data-name="Path 2163" d="M40.73,44.06H40.1v-.92h.63ZM40.16,44h.51v-.8h-.51Z" transform="translate(0 -1.2)" fill="#fff"/>
      <path id="Path_2164" data-name="Path 2164" d="M41.73,44.06h-.62v-.92h.62ZM41.16,44h.51v-.8h-.51Z" transform="translate(0 -1.2)" fill="#fff"/>
      <path id="Path_2165" data-name="Path 2165" d="M42.73,44.06h-.62v-.92h.62ZM42.17,44h.51v-.8h-.51Z" transform="translate(0 -1.2)" fill="#fff"/>
      <path id="Path_2166" data-name="Path 2166" d="M43.73,44.06h-.62v-.92h.62ZM43.17,44h.51v-.8h-.51Z" transform="translate(0 -1.2)" fill="#fff"/>
      <path id="Path_2167" data-name="Path 2167" d="M44.77,44.06h-.63v-.92h.63ZM44.2,44h.51v-.8H44.2Z" transform="translate(0 -1.2)" fill="#fff"/>
      <path id="Path_2168" data-name="Path 2168" d="M45.77,44.06h-.62v-.92h.62ZM45.2,44h.51v-.8H45.2Z" transform="translate(0 -1.2)" fill="#fff"/>
      <path id="Path_2169" data-name="Path 2169" d="M46.77,44.06h-.62v-.92h.62ZM46.21,44h.51v-.8h-.51Z" transform="translate(0 -1.2)" fill="#fff"/>
      <path id="Path_2170" data-name="Path 2170" d="M47.77,44.06h-.62v-.92h.62ZM47.21,44h.51v-.8h-.51Z" transform="translate(0 -1.2)" fill="#fff"/>
      <path id="Path_2171" data-name="Path 2171" d="M48.82,44.06H48.2v-.92h.62ZM48.26,44h.51v-.8h-.51Z" transform="translate(0 -1.2)" fill="#fff"/>
      <path id="Path_2172" data-name="Path 2172" d="M49.82,44.06H49.2v-.92h.62ZM49.26,44h.51v-.8h-.51Z" transform="translate(0 -1.2)" fill="#fff"/>
      <path id="Path_2173" data-name="Path 2173" d="M40.73,45.34H40.1v-.92h.63Zm-.57-.05h.51v-.81h-.51Z" transform="translate(0 -1.2)" fill="#fff"/>
      <path id="Path_2174" data-name="Path 2174" d="M41.73,45.34h-.62v-.92h.62Zm-.57-.05h.51v-.81h-.51Z" transform="translate(0 -1.2)" fill="#fff"/>
      <path id="Path_2175" data-name="Path 2175" d="M42.73,45.34h-.62v-.92h.62Zm-.56-.05h.51v-.81h-.51Z" transform="translate(0 -1.2)" fill="#fff"/>
      <path id="Path_2176" data-name="Path 2176" d="M43.73,45.34h-.62v-.92h.62Zm-.56-.05h.51v-.81h-.51Z" transform="translate(0 -1.2)" fill="#fff"/>
      <path id="Path_2177" data-name="Path 2177" d="M44.77,45.34h-.63v-.92h.63Zm-.57-.05h.51v-.81H44.2Z" transform="translate(0 -1.2)" fill="#fff"/>
      <path id="Path_2178" data-name="Path 2178" d="M45.77,45.34h-.62v-.92h.62Zm-.57-.05h.51v-.81H45.2Z" transform="translate(0 -1.2)" fill="#fff"/>
      <path id="Path_2179" data-name="Path 2179" d="M46.77,45.34h-.62v-.92h.62Zm-.56-.05h.51v-.81h-.51Z" transform="translate(0 -1.2)" fill="#fff"/>
      <path id="Path_2180" data-name="Path 2180" d="M47.77,45.34h-.62v-.92h.62Zm-.56-.05h.51v-.81h-.51Z" transform="translate(0 -1.2)" fill="#fff"/>
      <path id="Path_2181" data-name="Path 2181" d="M48.82,45.34H48.2v-.92h.62Zm-.56-.05h.51v-.81h-.51Z" transform="translate(0 -1.2)" fill="#fff"/>
      <path id="Path_2182" data-name="Path 2182" d="M49.82,45.34H49.2v-.92h.62Zm-.56-.05h.51v-.81h-.51Z" transform="translate(0 -1.2)" fill="#fff"/>
      <path id="Path_2183" data-name="Path 2183" d="M48.94,39.9H46.66v-.85l2.28-.87Zm-2.22,0h2.17V38.26l-2.17.83Z" transform="translate(0 -1.2)" fill="#fff"/>
      <path id="Path_2184" data-name="Path 2184" d="M35.77,46.16H30.63v-5.6l5.14,1.78Zm-5.08-.06h5V42.38l-5-1.74Z" transform="translate(0 -1.2)" fill="#fff"/>
      <path id="Path_2185" data-name="Path 2185" d="M35.64,42.71H30.77v-.22h4.87Zm-4.82-.05h4.76v-.12H30.82Z" transform="translate(0 -1.2)" fill="#fff"/>
      <path id="Path_2186" data-name="Path 2186" d="M35.64,43.26H30.77V43h4.87Zm-4.82,0h4.76v-.12H30.82Z" transform="translate(0 -1.2)" fill="#fff"/>
      <path id="Path_2187" data-name="Path 2187" d="M35.64,43.81H30.77v-.23h4.87Zm-4.82-.05h4.76v-.12H30.82Z" transform="translate(0 -1.2)" fill="#fff"/>
      <path id="Path_2188" data-name="Path 2188" d="M35.64,44.36H30.77v-.23h4.87Zm-4.82-.06h4.76v-.11H30.82Z" transform="translate(0 -1.2)" fill="#fff"/>
      <path id="Path_2189" data-name="Path 2189" d="M35.64,44.91H30.77v-.23h4.87Zm-4.82-.06h4.76v-.11H30.82Z" transform="translate(0 -1.2)" fill="#fff"/>
      <path id="Path_2190" data-name="Path 2190" d="M35.64,45.46H30.77v-.23h4.87Zm-4.82-.06h4.76v-.11H30.82Z" transform="translate(0 -1.2)" fill="#fff"/>
      <path id="Path_2191" data-name="Path 2191" d="M49.37,39.9h-.48V38.19h.48Zm-.43,0h.37V38.3h-.37Z" transform="translate(0 -1.2)" fill="#fff"/>
      <path id="Path_2192" data-name="Path 2192" d="M48.47,39.64h-.92V39h.92Zm-.87,0h.82v-.51H47.6Z" transform="translate(0 -1.2)" fill="#fff"/>
      <path id="Path_2193" data-name="Path 2193" d="M31.44,30.2h-.35V27.65h.35Zm-.3-.05h.24V27.71h-.24Z" transform="translate(0 -1.2)" fill="#fff"/>
      <path id="Path_2194" data-name="Path 2194" d="M32,30.2h-.35V27.65H32Zm-.29-.05H32V27.71h-.24Z" transform="translate(0 -1.2)" fill="#fff"/>
      <path id="Path_2195" data-name="Path 2195" d="M32.6,30.2h-.35V27.65h.35Zm-.29-.05h.24V27.71h-.24Z" transform="translate(0 -1.2)" fill="#fff"/>
      <path id="Path_2196" data-name="Path 2196" d="M33.2,30.2h-.35V27.65h.35Zm-.3-.05h.25V27.71H32.9Z" transform="translate(0 -1.2)" fill="#fff"/>
      <path id="Path_2197" data-name="Path 2197" d="M119.45,49.09l-1.82.32a.291.291,0,0,0-.29.3l6.52,36.6c0,.13.19.21.37.18l1.82-.32a.3.3,0,0,0,.28-.3l-6.51-36.6a.3.3,0,0,0-.37-.18Z" transform="translate(0 -1.2)" fill="#f0a350"/>
      <path id="Path_2198" data-name="Path 2198" d="M119.45,49.09l-1.82.32a.291.291,0,0,0-.29.3l.2,1.14,2.48-.44-.2-1.14a.3.3,0,0,0-.37-.18Z" transform="translate(0 -1.2)" fill="#2b488c"/>
      <path id="Path_2199" data-name="Path 2199" d="M123.86,86.31c0,.13.19.21.37.18l1.82-.32a.3.3,0,0,0,.28-.3l-.17-1-2.48.44Z" transform="translate(0 -1.2)" fill="#2b488c"/>
      <path id="Path_2200" data-name="Path 2200" d="M119,51.64a.162.162,0,0,0-.16.18L124.55,84c0,.07.11.12.21.1s.18-.09.16-.17l-5.73-32.21a.17.17,0,0,0-.19-.08Z" transform="translate(0 -1.2)" fill="#e27f2b"/>
      <path id="Path_2201" data-name="Path 2201" d="M28.65,85.29h1.2a24.61,24.61,0,0,1-2.35-3L26,79.47,24,80l2.52,3.57Z" transform="translate(0 -1.2)" fill="#e59a64"/>
      <path id="Path_2202" data-name="Path 2202" d="M17.45,30.79a2.5,2.5,0,0,0-1.39-.26.57.57,0,0,1,.29-.14,2.06,2.06,0,0,0-.77.2c-3.31-1.28-2.5,3.54-2.43,4.67S10.71,36.82,9,37.71c-3.29,1.71-3.58,4-3.58,4H5.5c.17-.28.5-.8.78-.88,0,0-.33.72-.45,1.11,1,.74,2.78,2.38,4,3.53A1.81,1.81,0,0,1,10,44.8l.16.94L11.3,46.8c-.08-.92,4.14-5.75,6.34-7.2a6.13,6.13,0,0,0,.74-2.29,6,6,0,0,1-.45,2.08C19.75,37.67,18.66,31.48,17.45,30.79Z" transform="translate(0 -1.2)" fill="#183660"/>
      <path id="Path_2203" data-name="Path 2203" d="M17.46,39.68a3.09,3.09,0,0,1-1.87.34,2.43,2.43,0,0,1-1.25-1.2c.33-.06.42-.5.41-2.4h.15l2.44.49s-.05.77-.05,1.49S17.32,39.61,17.46,39.68Z" transform="translate(0 -1.2)" fill="#e59a64"/>
      <path id="Path_2204" data-name="Path 2204" d="M14.69,31.59a2,2,0,0,1,2.73-.07,10.73,10.73,0,0,0-2.73.07Z" transform="translate(0 -1.2)" fill="#e47a71"/>
      <path id="Path_2205" data-name="Path 2205" d="M17.34,36.93s-.05.77-.05,1.49a2.87,2.87,0,0,1-2.39-2Z" transform="translate(0 -1.2)" fill="#d58d5c"/>
      <path id="Path_2206" data-name="Path 2206" d="M14.64,36.18a7.5,7.5,0,0,1-.89-2.11c-.12-.69.23-3.26,2.81-2.89a3.65,3.65,0,0,1,1.46.55c.56.38,1.36,1.2.46,3.44l-.23.75Z" transform="translate(0 -1.2)" fill="#183660"/>
      <path id="Path_2207" data-name="Path 2207" d="M27.1,81.29H24.4A27.74,27.74,0,0,1,19.34,72c-.05-.13-.09-.27-.14-.41-1-2.9-3.06-6.55-4.15-9.84-.17-.53-.33-1-.47-1.49a1.531,1.531,0,0,0-.13-.45,34.62,34.62,0,0,1-1.24-6.56l6.94.05A212.856,212.856,0,0,0,27.1,81.29Z" transform="translate(0 -1.2)" fill="#2b488c"/>
      <path id="Path_2208" data-name="Path 2208" d="M20,48.76a24.94,24.94,0,0,0,.55,5.35,10.54,10.54,0,0,1-7.36.45c-.05,0,.26-15.45,1.39-15.87a2.48,2.48,0,0,0,1.73.62c.8,0,1.06-.35,1-.73C18.13,39.06,19.83,43.41,20,48.76Z" transform="translate(0 -1.2)" fill="#e8f0fa"/>
      <path id="Path_2209" data-name="Path 2209" d="M17.8,37.62s-3.24.05-3.24-2-.42-3.37,1.65-3.49,2.47.65,2.63,1.32S18.65,37.55,17.8,37.62Z" transform="translate(0 -1.2)" fill="#e59a64"/>
      <path id="Path_2210" data-name="Path 2210" d="M18.75,32.36c-.5-.6-.88-.47-1.09-.29-.7-1.05-2.92.47-2.92.47a4.23,4.23,0,0,0-1.26,2.27,2.65,2.65,0,0,0,1.95,0c1.08-.28,1.85-1.8,2.14-2.44a2.68,2.68,0,0,1,.72,1c.16.51.23,1.57.54,1.53C18.83,34.88,19.5,33.27,18.75,32.36Z" transform="translate(0 -1.2)" fill="#183660"/>
      <path id="Path_2211" data-name="Path 2211" d="M30.84,41a2,2,0,0,1,2.27-1.42.635.635,0,0,1,.43,1c-.29.48-.41.23-.86.87a1.45,1.45,0,0,1-1.5.72Z" transform="translate(0 -1.2)" fill="#e59a64"/>
      <path id="Path_2212" data-name="Path 2212" d="M15.37,85.18c-.11-.61-.32-1.66-.32-1.66V79.8H12.84l.85,3.56a3.58,3.58,0,0,1-.18,1.49s-.21,1,.76,1S15.48,85.78,15.37,85.18Z" transform="translate(0 -1.2)" fill="#e59a64"/>
      <path id="Path_2213" data-name="Path 2213" d="M13.51,84.85a5.53,5.53,0,0,0-.08,1.54h2.05a6,6,0,0,0-.17-1.56S14.62,85.86,13.51,84.85Z" transform="translate(0 -1.2)" fill="#243962"/>
      <path id="Path_2214" data-name="Path 2214" d="M29.87,85.29h0a1.77,1.77,0,0,1-1.4-.65C27.13,83.13,26.38,83,26.12,83A1.61,1.61,0,0,0,26,84.53l.47,1.86H27V84.63a1.17,1.17,0,0,1,.81.55c.36.71.61,1.21.94,1.21H31S31,85.78,29.87,85.29Z" transform="translate(0 -1.2)" fill="#243962"/>
      <path id="Path_2215" data-name="Path 2215" d="M30.84,41S28.72,42.16,28,42.5c-.44.19-1.43.66-2.14,1a1.09,1.09,0,0,1-1.3-.28c-1.15-1.35-4.14-4.27-7.22-4.63h0a46.179,46.179,0,0,1,1.93,5.57c.05.94.22,15.33.22,15.33s-.11.66,1.15.39a4.39,4.39,0,0,0,1.6-.55s-1.21-8.88-.88-12a6.62,6.62,0,0,0-.13-2A15.91,15.91,0,0,0,25.28,47a22.61,22.61,0,0,0,3.93-2.39,13.33,13.33,0,0,0,2-2.51Z" transform="translate(0 -1.2)" fill="#faa31c"/>
      <path id="Path_2216" data-name="Path 2216" d="M25.8,81.33H24.4A27.74,27.74,0,0,1,19.34,72c-.05-.13-.09-.27-.14-.41-1-2.9-3.06-6.55-4.15-9.84-.17-.53-.33-1-.47-1.49a1.531,1.531,0,0,0-.13-.45l1.16-.87a39.65,39.65,0,0,1,4.55,10.91C21.09,74.42,24.84,80,25.8,81.33Z" transform="translate(0 -1.2)" fill="#243962"/>
      <path id="Path_2217" data-name="Path 2217" d="M15.73,70.32c0,2.57-.11,8.49-.44,10.94H13c-.84-4.26-1.44-7.79-1.87-10.82-.36-2.5-.68-4.63-.92-6.47s-.42-3.4-.48-4.71V58.09l6.78-.67C16.42,61.92,15.72,68.82,15.73,70.32Z" transform="translate(0 -1.2)" fill="#2b488c"/>
      <path id="Path_2218" data-name="Path 2218" d="M14,81.26H13c-.84-4.26-1.44-7.79-1.87-10.82-.36-2.5-.68-4.63-.92-6.47s-.42-3.4-.48-4.71l2.49,1.46s-1.59.56-1,4.81S13.2,80.66,14,81.26Z" transform="translate(0 -1.2)" fill="#243962"/>
      <path id="Path_2219" data-name="Path 2219" d="M14.36,59.21a2,2,0,0,1-2.13,1.5,20.14,20.14,0,0,1-4-1.21s.71-2.23,1.59-5.17c1.06-3.55,2.38-8.13,3-11a16,16,0,0,0,.34-2l1.39-2.65a40.67,40.67,0,0,1,2.14,5.74C16.79,45.59,14.36,59.21,14.36,59.21Z" transform="translate(0 -1.2)" fill="#faa31c"/>
      <path id="Path_2220" data-name="Path 2220" d="M14.29,46.85a8.08,8.08,0,0,1-4.45,7.47h0c1.06-3.55,2.38-8.13,3-11a7.2,7.2,0,0,1,1.45,3.53Z" transform="translate(0 -1.2)" fill="#e27f2b"/>
      <path id="Path_2221" data-name="Path 2221" d="M21.41,45.83a6,6,0,0,1-1.79,2.73,1.25,1.25,0,0,1-.54.29A23.52,23.52,0,0,1,14.29,50V47.9l4.43-.25a2.31,2.31,0,0,0,.35-.83,1.24,1.24,0,0,1,1.2-1.1C21.07,45.62,21.41,45.6,21.41,45.83Z" transform="translate(0 -1.2)" fill="#e59a64"/>
      <path id="Path_2222" data-name="Path 2222" d="M14.54,38.69s-3.37.22-4.18,2-1.07,7.79,0,9.55a9.27,9.27,0,0,0,3.92-.06h.1s.8-2,.08-2.34c0,0-2.12.11-1.89-.59S14.54,38.69,14.54,38.69Z" transform="translate(0 -1.2)" fill="#faa31c"/>
      <path id="Path_2223" data-name="Path 2223" d="M85.74,56.31H83.61c-.26.08-.46.64-.47,1.33v.1a2.89,2.89,0,0,0,.13.79c.08.23.18.39.31.44h.14l17.33.23V56.51Z" transform="translate(0 -1.2)" fill="#fff"/>
      <path id="Path_2224" data-name="Path 2224" d="M93.3,58.82c-3.66.31-5.86-1.32-7.56-2.51H83.61c-.26.08-.46.64-.47,1.33v.1a2.89,2.89,0,0,0,.13.79,1.27,1.27,0,0,0,.31.44h.14l17.33.23V57.88a52.931,52.931,0,0,1-7.75.94Z" transform="translate(0 -1.2)" fill="#c0d4ee"/>
      <path id="Path_2225" data-name="Path 2225" d="M101.12,56.5c-.29,0-.53.59-.53,1.34s.22,1.34.51,1.34.53-.59.53-1.34S101.41,56.5,101.12,56.5Z" transform="translate(0 -1.2)" fill="#b2cbea"/>
      <path id="Path_2226" data-name="Path 2226" d="M15.3,29.81a3.59,3.59,0,0,0-1.53.75l-.11.1h0a3.76,3.76,0,0,0-.83,3.41,5.26,5.26,0,0,0,.31.74c.12.2,2,0,2-.43a2.37,2.37,0,0,1,.46-.81l2.06-.14A11.21,11.21,0,0,0,19.39,33C19.38,32.84,18.68,29,15.3,29.81Z" transform="translate(0 -1.2)" fill="#faa31c"/>
      <path id="Path_2227" data-name="Path 2227" d="M20.54,32.56a6.649,6.649,0,0,0-1.28-.15s-1.26.49-2.35.84c-.51-.64-1.25-2.23-3.14-2.69h0l-.09.1h0c1.54.27,2.36,2.06,2.86,2.7a2.35,2.35,0,0,1-.84.17s3.38.07,4.92-.75a.14.14,0,0,0-.08-.22Z" transform="translate(0 -1.2)" fill="#e27f2b"/>
      <path id="Path_2228" data-name="Path 2228" d="M71.79,32.33c1.32-2.39,4.88-2.1,4.88-2.1a5,5,0,0,0-5.43,2l-.15-.05-.83.22,7.34,1.47Z" transform="translate(0 -1.2)" fill="#e27f2b"/>
      <rect id="Rectangle_1557" data-name="Rectangle 1557" width="1.35" height="26.56" transform="translate(63.18 58.73)" fill="#8093ca"/>
      <rect id="Rectangle_1558" data-name="Rectangle 1558" width="1.35" height="26.56" transform="translate(113.83 58.73)" fill="#8093ca"/>
      <rect id="Rectangle_1559" data-name="Rectangle 1559" width="1.35" height="59.95" transform="translate(118.96 57.7) rotate(90)" fill="#8093ca"/>
      <rect id="Rectangle_1560" data-name="Rectangle 1560" width="1.35" height="1.01" transform="translate(63.18 59.05)" fill="#35498c"/>
      <rect id="Rectangle_1561" data-name="Rectangle 1561" width="1.35" height="1.01" transform="translate(113.83 59.05)" fill="#35498c"/>
      <path id="Path_2229" data-name="Path 2229" d="M117.46,56.45a3.52,3.52,0,0,0-.52-.54l-.17-.14a2.73,2.73,0,0,0-2.79-.45,2.77,2.77,0,0,0-.81.53A1.06,1.06,0,0,0,113,56a4.57,4.57,0,0,0-1,2.93h5.94a4.28,4.28,0,0,0-.48-2.48Z" transform="translate(0 -1.2)" fill="#faa31c"/>
      <path id="Path_2230" data-name="Path 2230" d="M116.33,58.91c0-.25-.12-2.3.61-3l-.1-.09c-.78.81-.84,2.82-.83,3.09h-1.9a7.62,7.62,0,0,0-.94-3.07.57.57,0,0,0-.11.11,8.79,8.79,0,0,1,.69,3h-1.69a12.83,12.83,0,0,0,2.77.41A20.55,20.55,0,0,0,118,58.9Z" transform="translate(0 -1.2)" fill="#e27f2b"/>
      <path id="Path_2231" data-name="Path 2231" d="M97.51,56.27v2.66H80.05c-.25-.09-.44-.59-.46-1.23v-.1c0-.69.19-1.25.45-1.34H97.51Z" transform="translate(0 -1.2)" fill="#fff"/>
      <path id="Path_2232" data-name="Path 2232" d="M97.51,57.6v1.33H80.05c-.25-.09-.44-.59-.46-1.23a19.25,19.25,0,0,0,10,0C95.21,56.17,97.26,57.68,97.51,57.6Z" transform="translate(0 -1.2)" fill="#c0d4ee"/>
      <path id="Path_2233" data-name="Path 2233" d="M97.54,56.25c-.29,0-.52.61-.52,1.35s.24,1.34.53,1.34.52-.61.52-1.35S97.83,56.25,97.54,56.25Z" transform="translate(0 -1.2)" fill="#b2cbea"/>
      <path id="Path_2234" data-name="Path 2234" d="M76.84,38.73s4.24,4.38,4.44,6-2,4.23-2,4.23Z" transform="translate(0 -1.2)" fill="#5074b9"/>
      <path id="Path_2235" data-name="Path 2235" d="M75,84.13s-.15,2.33-.6,2.36H69.31a.93.93,0,0,1,.85-.83,3.81,3.81,0,0,0,2.72-1.82C73.41,82.68,75,84.13,75,84.13Z" transform="translate(0 -1.2)" fill="#183660"/>
      <path id="Path_2236" data-name="Path 2236" d="M81.35,84.13s-.15,2.33-.6,2.36H75.62a1,1,0,0,1,.86-.84,3.81,3.81,0,0,0,2.72-1.82C79.73,82.68,81.35,84.13,81.35,84.13Z" transform="translate(0 -1.2)" fill="#183660"/>
      <path id="Path_2237" data-name="Path 2237" d="M71.88,59.19A94.729,94.729,0,0,0,75.4,72.36c2.76,8.43,3.14,12.07,3.14,12.07a12.062,12.062,0,0,0,1.54.11,9.851,9.851,0,0,0,1.43-.19s0-9.21-1.25-13.45S80,55.63,80,55.63Z" transform="translate(0 -1.2)" fill="#243962"/>
      <path id="Path_2238" data-name="Path 2238" d="M70.44,55.89a114.421,114.421,0,0,0,1.13,15.93c1.24,8.79.82,12.52.82,12.52s1,.18,1.38.19,1.58-.1,1.58-.1,1.78-8.78,1.27-13.18S79,56.17,79,56.17Z" transform="translate(0 -1.2)" fill="#2b488c"/>
      <path id="Path_2239" data-name="Path 2239" d="M76.18,39.15l-1.4,1-2-.42c0-.19.16-.95.28-1.64a.5.5,0,0,0,0-.12c.11-.59.2-1.1.2-1.1L75.14,36l.71-.35s-.06.66-.06.75a5.94,5.94,0,0,0,.39,2.75Z" transform="translate(0 -1.2)" fill="#fab17e"/>
      <path id="Path_2240" data-name="Path 2240" d="M72.9,38.63a18.64,18.64,0,0,1,3-.72c.3.09.47.66.47.66l-4.42,1A2.17,2.17,0,0,1,72.9,38.63Z" transform="translate(0 -1.2)" fill="#5074b9"/>
      <path id="Path_2241" data-name="Path 2241" d="M80.18,56.77c-.46,2.09-8.08,2.34-10.05.44A5.37,5.37,0,0,1,70,54.63c.16-2.65.69-6.64.71-8.68a16.091,16.091,0,0,1,.33-2.9,23,23,0,0,1,1-3.48s3.72-1.2,4.42-1C79.77,39.56,80.64,54.68,80.18,56.77Z" transform="translate(0 -1.2)" fill="#7a97cd"/>
      <path id="Path_2242" data-name="Path 2242" d="M70,54.63c.16-2.65.69-6.64.71-8.68a16.091,16.091,0,0,1,.33-2.9l2.24-.4S75.45,51.6,70,54.63Z" transform="translate(0 -1.2)" fill="#5074b9"/>
      <path id="Path_2243" data-name="Path 2243" d="M71.19,50.94a.51.51,0,0,1-.17.61,1,1,0,0,0-.45.93,1.36,1.36,0,0,0,1,.69c.24-.08.74-.46.69-.62s.33-1.34-.26-1.8a.48.48,0,0,0-.81.19Z" transform="translate(0 -1.2)" fill="#fab17e"/>
      <path id="Path_2244" data-name="Path 2244" d="M73.7,39a6.79,6.79,0,0,0-3.93,3c-1.74,2.57-2.89,4.48-2.57,5.4s3.25,4.14,3.75,4.14a1.36,1.36,0,0,0,1.37-1.2s-2.06-3.08-1.66-3.54c.18-.2,2.68-2.23,3-1.32C74.28,47,73.7,39,73.7,39Z" transform="translate(0 -1.2)" fill="#7a97cd"/>
      <path id="Path_2245" data-name="Path 2245" d="M75.64,36.39A5.69,5.69,0,0,1,73,38.12.5.5,0,0,0,73,38c.11-.59.2-1.1.2-1.1l1.94-.9C75.56,36,75.82,36.06,75.64,36.39Z" transform="translate(0 -1.2)" fill="#f9a56c"/>
      <path id="Path_2246" data-name="Path 2246" d="M72.66,37.1s3.33.38,3.54-1.7.8-3.4-1.35-3.76-2.61.42-2.85,1.1S71.79,37,72.66,37.1Z" transform="translate(0 -1.2)" fill="#fab17e"/>
      <path id="Path_2247" data-name="Path 2247" d="M72.09,32.52s.64,2.26,1.09,2.07.87-.35.93.36-.44,1.62,1,1.47,2.87-4.32,2.33-5C75.93,29.62,69.94,30.33,72.09,32.52Z" transform="translate(0 -1.2)" fill="#243962"/>
      <path id="Path_2248" data-name="Path 2248" d="M77.6,33.85l-7.34-1.47.83-.22s.75-3.11,4.47-2.37C78.65,30.41,77.6,33.85,77.6,33.85Z" transform="translate(0 -1.2)" fill="#faa31c"/>
      <path id="Path_2249" data-name="Path 2249" d="M131.51,86.8H.24A.24.24,0,0,1,0,86.56H0a.23.23,0,0,1,.24-.23H131.51a.23.23,0,0,1,.23.23h0a.23.23,0,0,1-.23.24Z" transform="translate(0 -1.2)" fill="#20304e"/>
    </g>
    <text id="_1" data-name="1" transform="translate(10.91 110.15)" fill="#091d3f" stroke="#fff" stroke-miterlimit="10" stroke-width="1" font-size="50" font-family="Poppins-ExtraBold, Poppins" font-weight="800"><tspan x="0" y="0">1</tspan></text>
  </g>
</svg>
