<svg xmlns="http://www.w3.org/2000/svg" width="19.052" height="21.771" viewBox="0 0 19.052 21.771">
  <g id="customerdark" transform="translate(-56.66 -215.589)">
    <g id="customerdark-2" data-name="customerdark">
      <g id="Group_41" data-name="Group 41" transform="translate(-0.462 -0.535)">
        <path id="Path_2295" data-name="Path 2295" d="M8.222,8.7V8.419a2.557,2.557,0,0,1,.7-1.923A2.451,2.451,0,0,0,9.69,4.964c0-.56-.349-.94-1.056-.951a1.954,1.954,0,0,0-1.12.349L7.25,3.654a2.9,2.9,0,0,1,1.585-.444,1.648,1.648,0,0,1,1.859,1.637,3.043,3.043,0,0,1-.951,1.933A2.113,2.113,0,0,0,9.1,8.419V8.7Z" transform="translate(58.008 216.726)" fill="none" stroke="#091d3f" stroke-miterlimit="10" stroke-width="0.47"/>
        <path id="Path_2296" data-name="Path 2296" d="M7.94,9.926a.666.666,0,1,1,.666.666.666.666,0,0,1-.666-.666Z" transform="translate(58.047 217.069)" fill="none" stroke="#091d3f" stroke-miterlimit="10" stroke-width="0.47"/>
        <path id="Path_2297" data-name="Path 2297" d="M17.674,17.819V20.45H.38V17.819s-.1-1.574,2.821-2.641,2.62-1.733,2.62-1.733V12.072A6.339,6.339,0,0,1,3.771,9.484,1.31,1.31,0,0,1,2.82,8.6c-.275-.634-.2-1.268.158-1.426a.475.475,0,0,1,.243,0c0-.127,0-.264,0-.4A6.106,6.106,0,0,1,9.032.43a6.117,6.117,0,0,1,5.821,6.339v.412a.486.486,0,0,1,.275,0c.359.158.423.792.158,1.426s-.655.9-.993.887a6.18,6.18,0,0,1-2.039,2.578v1.373s-.3.666,2.62,1.733S17.674,17.819,17.674,17.819Z" transform="translate(57.62 216.57)" fill="none" stroke="#091d3f" stroke-miterlimit="10" stroke-width="1.75"/>
      </g>
    </g>
  </g>
</svg>
