<svg xmlns="http://www.w3.org/2000/svg" width="18.128" height="20.701" viewBox="0 0 18.128 20.701">
  <g id="customerwhite" transform="translate(-28.122 -148.124)">
    <path id="Path_2295" data-name="Path 2295" d="M8.17,8.41V8.14a2.42,2.42,0,0,1,.66-1.82,2.32,2.32,0,0,0,.73-1.45c0-.53-.33-.89-1-.9A1.85,1.85,0,0,0,7.5,4.3l-.25-.67a2.74,2.74,0,0,1,1.5-.42,1.56,1.56,0,0,1,1.76,1.55,2.88,2.88,0,0,1-.9,1.83A2,2,0,0,0,9,8.14v.27Z" transform="translate(28.62 148.57)" fill="none" stroke="#fff" stroke-miterlimit="10" stroke-width="0.47"/>
    <path id="Path_2296" data-name="Path 2296" d="M7.94,9.89a.63.63,0,1,1,.63.63.63.63,0,0,1-.63-.63Z" transform="translate(28.62 148.57)" fill="none" stroke="#fff" stroke-miterlimit="10" stroke-width="0.47"/>
    <path id="Path_2297" data-name="Path 2297" d="M16.75,16.89v2.49H.38V16.89s-.09-1.49,2.67-2.5,2.48-1.64,2.48-1.64v-1.3A6,6,0,0,1,3.59,9a1.24,1.24,0,0,1-.9-.84c-.26-.6-.19-1.2.15-1.35a.45.45,0,0,1,.23,0c0-.12,0-.25,0-.38a5.78,5.78,0,0,1,5.5-6,5.79,5.79,0,0,1,5.51,6v.39a.46.46,0,0,1,.26,0c.34.15.4.75.15,1.35s-.62.85-.94.84a5.85,5.85,0,0,1-1.93,2.44v1.3s-.28.63,2.48,1.64S16.75,16.89,16.75,16.89Z" transform="translate(28.62 148.57)" fill="none" stroke="#fff" stroke-miterlimit="10" stroke-width="1.75"/>
  </g>
</svg>
