<svg id="Layer_2" data-name="Layer 2" xmlns="http://www.w3.org/2000/svg" width="100" height="127.61" viewBox="0 0 100 127.61">
  <g id="Layer_1" data-name="Layer 1">
    <rect id="Rectangle_1054" data-name="Rectangle 1054" width="100" height="100" fill="#091d3f"/>
    <path id="Path_1681" data-name="Path 1681" d="M100,26V80.19C88.9,82.1,31.27,90.51,0,65.58V40.93C3.15,33,7.6,26.27,13.21,28.48c12.05,4.77,38.37-22,38.37-22S71-3.88,89.44,14.34A141.191,141.191,0,0,1,100,26Z" fill="#ffd230"/>
    <rect id="Rectangle_1055" data-name="Rectangle 1055" width="61.78" height="38.67" transform="translate(30.04 23.98)" fill="#c8e3e5"/>
    <path id="Path_1682" data-name="Path 1682" d="M90.23,21.59H33.69a4,4,0,0,0-4,4v38a4,4,0,0,0,4,4H90.23a4,4,0,0,0,4-4v-38A4,4,0,0,0,90.23,21.59Zm1.59,34.66a3.37,3.37,0,0,1-3.37,3.37h-53a3.37,3.37,0,0,1-3.36-3.37V27.35A3.37,3.37,0,0,1,35.46,24h53a3.37,3.37,0,0,1,3.37,3.37Z" fill="#070908"/>
    <path id="Path_1683" data-name="Path 1683" d="M63.14,24.45l.1.1v-.2Z" fill="#f0efef" stroke="#389dad" stroke-miterlimit="10" stroke-width="0.48"/>
    <path id="Path_1684" data-name="Path 1684" d="M76.44,37.74v4.23L63.14,29.52,49.85,41.97V37.74L63.04,24.55l.1-.1.1.1Z" fill="none" stroke="#389dad" stroke-miterlimit="10" stroke-width="0.48"/>
    <path id="Path_1685" data-name="Path 1685" d="M63,24.35v.2l.1-.1Z" fill="#f0efef" stroke="#389dad" stroke-miterlimit="10" stroke-width="0.48"/>
    <path id="Path_1686" data-name="Path 1686" d="M52.1,39.2V57.95H63.16" fill="none" stroke="#389dad" stroke-miterlimit="10" stroke-width="0.97"/>
    <path id="Path_1687" data-name="Path 1687" d="M74.22,39.2V57.95H63.16" fill="none" stroke="#389dad" stroke-miterlimit="10" stroke-width="0.97"/>
    <rect id="Rectangle_1056" data-name="Rectangle 1056" width="4.19" height="8.38" transform="translate(54.7 44.34)" fill="none" stroke="#389dad" stroke-miterlimit="10" stroke-width="0.97"/>
    <rect id="Rectangle_1057" data-name="Rectangle 1057" width="4.19" height="8.38" transform="translate(58.97 44.34)" fill="none" stroke="#389dad" stroke-miterlimit="10" stroke-width="0.97"/>
    <rect id="Rectangle_1058" data-name="Rectangle 1058" width="3.18" height="8.38" transform="translate(66.56 44.34)" fill="none" stroke="#389dad" stroke-miterlimit="10" stroke-width="0.84"/>
    <rect id="Rectangle_1059" data-name="Rectangle 1059" width="3.18" height="8.38" transform="translate(69.66 44.34)" fill="none" stroke="#389dad" stroke-miterlimit="10" stroke-width="0.84"/>
    <path id="Path_1688" data-name="Path 1688" d="M60.93,23.98,47.63,59.62H32.1V23.54Z" fill="#fff" opacity="0.44"/>
    <path id="Path_1689" data-name="Path 1689" d="M70.93,72.06V94.61H6.43V72.06c.3-5.08,4.33-5.22,4.33-5.22h9.41A14.77,14.77,0,0,0,29,62.64a4,4,0,0,0,.28-.32h0a9.42,9.42,0,0,0,1.93-3.12H46.15a9.68,9.68,0,0,0,2.17,3.4,14.76,14.76,0,0,0,8.88,4.27h9.4S70.64,67,70.93,72.06Z" fill="#044c75"/>
    <path id="Path_1690" data-name="Path 1690" d="M48.19,62.57a27.16,27.16,0,0,1-9.51,1.56h-.13a26.76,26.76,0,0,1-9.29-1.81.38.38,0,0,1-.1,0,9.27,9.27,0,0,0,1.92-3.12H46a9.5,9.5,0,0,0,2.19,3.37Z" fill="#c3e8f2"/>
    <path id="Path_1691" data-name="Path 1691" d="M20.46,71.32H38.68v23H14V77.74a6.42,6.42,0,0,1,6.46-6.42Z" fill="#050606"/>
    <path id="Path_1692" data-name="Path 1692" d="M38.68,71.32H63.31v23H45.1a6.42,6.42,0,0,1-6.42-6.42Z" transform="translate(101.99 165.63) rotate(180)" fill="#050606"/>
    <rect id="Rectangle_1060" data-name="Rectangle 1060" width="14.88" height="10.05" transform="translate(31.13 49.12)" fill="#f6cea5"/>
    <path id="Path_1693" data-name="Path 1693" d="M51.23,36.71S49.37,49.5,46,53.43a3.569,3.569,0,0,1-.37.4s-4,3-7,3.38c-2.93-.4-7-3.38-7-3.38a5.509,5.509,0,0,1-.59-.66c-3.21-4.22-5-16.46-5-16.46Z" fill="#060707"/>
    <path id="Path_1694" data-name="Path 1694" d="M38.68,14.81v21.9H24.55c-2.19-1.3,0-3.19,0-3.19a17,17,0,0,1,11-17.88l.36-.83Z" fill="#dc5726"/>
    <path id="Path_1695" data-name="Path 1695" d="M52.81,33.53s2.19,1.89,0,3.18H38.68V14.82h2.76l.37.82a17,17,0,0,1,11,17.89Z" fill="#dc5726"/>
    <path id="Path_1696" data-name="Path 1696" d="M38.68,14.81v9h-.15c-1.46-.53-3-8.11-3-8.11l.36-.83Z" fill="#ec7525"/>
    <path id="Path_1697" data-name="Path 1697" d="M41.67,15.64s-1.53,7.58-3,8.11h-.15v-9h2.76Z" fill="#ec7525"/>
    <path id="Path_1698" data-name="Path 1698" d="M38.68,14.81v79.8H6.43V72.06c.3-5.08,4.33-5.22,4.33-5.22h9.41A14.77,14.77,0,0,0,29,62.64a4,4,0,0,0,.28-.32.38.38,0,0,1-.1,0A9.27,9.27,0,0,0,31.1,59.2h.05v-6c-3.21-4.22-5-16.46-5-16.46h-1.6c-2.19-1.3,0-3.19,0-3.19a17,17,0,0,1,11-17.88l.36-.83Z" fill="#fff" opacity="0.28"/>
    <text id="_2" data-name="2" transform="translate(6.43 108.61)" fill="#091d3f" stroke="#fff" stroke-miterlimit="10" stroke-width="1" font-size="50" font-family="Poppins-ExtraBold, Poppins" font-weight="800"><tspan x="0" y="0">2</tspan></text>
  </g>
</svg>
