<svg xmlns="http://www.w3.org/2000/svg" width="22" height="22" viewBox="0 0 22 22">
  <g id="facebook" transform="translate(1 1)">
    <g id="Icons" transform="translate(0 0)">
      <path id="Path_3770" data-name="Path 3770" d="M14.875.5H6.125A5.625,5.625,0,0,0,.5,6.125v8.75A5.625,5.625,0,0,0,6.125,20.5H10.5V13H8a.625.625,0,0,1-.625-.625V10.5A.625.625,0,0,1,8,9.875h2.5V8c0-2.069,1.056-3.75,3.125-3.75h2.5a.625.625,0,0,1,.625.625V6.75a.625.625,0,0,1-.625.625H13.744a.125.125,0,0,0-.119.119V9.875H16.75a.625.625,0,0,1,.581.856l-1.25,1.875A.625.625,0,0,1,15.5,13H13.625v7.5h1.25A5.625,5.625,0,0,0,20.5,14.875V6.125A5.625,5.625,0,0,0,14.875.5Z" transform="translate(-0.5 -0.5)" fill="none" stroke="#000" stroke-miterlimit="10" stroke-width="2"/>
    </g>
  </g>
</svg>
