<svg xmlns="http://www.w3.org/2000/svg" width="22" height="22" viewBox="0 0 22 22">
  <g id="instagram" transform="translate(1 1)">
    <g id="Icons" transform="translate(0 0)">
      <path id="Path_3771" data-name="Path 3771" d="M14.875.5H6.125A5.625,5.625,0,0,0,.5,6.125v8.75A5.625,5.625,0,0,0,6.125,20.5h8.75A5.625,5.625,0,0,0,20.5,14.875V6.125A5.625,5.625,0,0,0,14.875.5ZM10.5,6.75A3.75,3.75,0,1,1,6.75,10.5,3.75,3.75,0,0,1,10.5,6.75Zm3.75-1.875a1.25,1.25,0,1,1,1.25,1.25A1.25,1.25,0,0,1,14.25,4.875Z" transform="translate(-0.5 -0.5)" fill="none" stroke="#000" stroke-miterlimit="10" stroke-width="2"/>
    </g>
  </g>
</svg>
