<svg xmlns="http://www.w3.org/2000/svg" width="26.127" height="22.35" viewBox="0 0 26.127 22.35">
  <g id="logout" transform="translate(-91.775 -216.825)">
    <g id="Layer_2" data-name="Layer 2" transform="translate(92.271 217.321)">
      <g id="Layer_1" data-name="Layer 1" transform="translate(0.38 0.38)">
        <path id="Path_2298" data-name="Path 2298" d="M14.729,15.417v2.754a2.872,2.872,0,0,1-.776,1.985,2.6,2.6,0,0,1-1.886.823H3.083a2.6,2.6,0,0,1-1.912-.808,2.871,2.871,0,0,1-.79-2V3.221A2.862,2.862,0,0,1,1.156,1.2,2.585,2.585,0,0,1,3.083.38h9.026a2.591,2.591,0,0,1,1.873.847,2.865,2.865,0,0,1,.747,1.994V6.581" transform="translate(-0.38 -0.38)" fill="none" stroke="#091d3f" stroke-linecap="round" stroke-miterlimit="10" stroke-width="1.75"/>
        <path id="Path_2299" data-name="Path 2299" d="M17.6,5.17l5.086,5.1L17.51,15.444" transform="translate(1.327 0.301)" fill="none" stroke="#091d3f" stroke-linecap="round" stroke-miterlimit="10" stroke-width="1.75"/>
        <line id="Line_207" data-name="Line 207" x2="16.711" y2="0.052" transform="translate(7.304 10.497)" fill="none" stroke="#091d3f" stroke-linecap="round" stroke-miterlimit="10" stroke-width="1.75"/>
      </g>
    </g>
  </g>
</svg>
