<svg xmlns="http://www.w3.org/2000/svg" width="25.267" height="22.092" viewBox="0 0 25.267 22.092">
  <g id="twitter" transform="translate(1.033 1.092)">
    <g id="Icons" transform="translate(0 0)">
      <path id="Path_3772" data-name="Path 3772" d="M8.048,20.572A13.16,13.16,0,0,1,.786,18.393a.726.726,0,0,1,.487-1.329,7.989,7.989,0,0,0,4.663-.821,5.28,5.28,0,0,1-2.978-3.3.726.726,0,0,1,.153-.726l.058-.058A5.367,5.367,0,0,1,1.359,8.146a.777.777,0,0,1,.363-.654.9.9,0,0,1,.305-.073A5.367,5.367,0,0,1,1.4,4.892a5.462,5.462,0,0,1,.726-2.658.726.726,0,0,1,1.206-.094A11.875,11.875,0,0,0,9.915,6.344a5.81,5.81,0,0,1,9.979-4.009,9.442,9.442,0,0,0,1.961-.966.73.73,0,0,1,1.024.966L21.8,4.514l1.38.458a.744.744,0,0,1,.145,1.336L21.456,7.347C21.187,13.956,16.212,20.572,8.048,20.572Z" transform="translate(-0.456 -0.572)" fill="none" stroke="#000" stroke-miterlimit="10" stroke-width="2"/>
    </g>
  </g>
</svg>
