<svg xmlns="http://www.w3.org/2000/svg" width="52" height="60" viewBox="0 0 52 60">
  <g id="Group_27" data-name="Group 27" transform="translate(-1099 -4149)">
    <g id="Polygon_1" data-name="Polygon 1" transform="translate(1099 4209) rotate(-90)" fill="#ffec3d">
      <path d="M 44.71121215820313 51.5 L 15.28877067565918 51.5 L 0.577241837978363 25.99999237060547 L 15.28878021240234 0.5000019073486328 L 44.71121215820313 0.5000019073486328 L 59.42276000976563 26.00000190734863 L 44.71121215820313 51.5 Z" stroke="none"/>
      <path d="M 15.57756805419922 1.000003814697266 L 1.154491424560547 25.99999237060547 L 15.57756042480469 51 L 44.42242431640625 51 L 58.84551239013672 26.00000190734863 L 44.42242431640625 1.000003814697266 L 15.57756805419922 1.000003814697266 M 15.00000381469727 3.814697265625e-06 L 44.99999237060547 3.814697265625e-06 L 60 26.00000190734863 L 44.99999237060547 52 L 14.99999237060547 52 L 3.814697265625e-06 25.99999237060547 L 15.00000381469727 3.814697265625e-06 Z" stroke="none" fill="#707070"/>
    </g>
    <g id="Layer_2" data-name="Layer 2" transform="translate(1104.579 4156.76)">
      <g id="Icons" transform="translate(9.008 9)">
        <path id="Path_2257" data-name="Path 2257" d="M13.414,1A12.413,12.413,0,0,0,3.649,21.067L1.87,26.388A.826.826,0,0,0,3,27.406l5.685-2.483a12.264,12.264,0,0,0,4.733.9A12.413,12.413,0,1,0,13.414,1Zm7.174,16.931a3.707,3.707,0,0,1-2.656,2.011,3.583,3.583,0,0,1-.778.091,9.359,9.359,0,0,1-3.393-.919A13.29,13.29,0,0,1,8.25,14.3L8.2,14.24a6.67,6.67,0,0,1-1.407-3.666,4.2,4.2,0,0,1,1.283-3.1,2.334,2.334,0,0,1,1.655-.645h.405a1.39,1.39,0,0,1,1.374,1.026l.29.7.67,1.547a1.407,1.407,0,0,1,0,1.307,2.425,2.425,0,0,1-.405.588,3.558,3.558,0,0,1-.265.29l-.149.166a8.366,8.366,0,0,0,1.415,1.713,6.8,6.8,0,0,0,2.168,1.316h0c.157-.19.356-.472.546-.736l.1-.149a1.423,1.423,0,0,1,1.721-.521c.372.132,2.152,1.018,2.168,1.034l.166.083a1.506,1.506,0,0,1,.77.6,3.12,3.12,0,0,1-.116,2.135Z" transform="translate(-1.008 -1)" fill="none" stroke="#000" stroke-miterlimit="10" stroke-width="2"/>
      </g>
    </g>
  </g>
</svg>
