<svg xmlns="http://www.w3.org/2000/svg" viewBox="0 0 41 48.09"><defs><style>.cls-1{fill:#fff;}</style></defs><title>contact</title><g id="Layer_2" data-name="Layer 2"><g id="blog_layer" data-name="blog layer"><path class="cls-1" d="M41,48.09H6V0H41ZM6.84,47.24H40.15V.85H6.84Z"/><path class="cls-1" d="M4.27,8.93H0V0H4.27ZM.85,8.08H3.42V.85H.85Z"/><path class="cls-1" d="M4.27,22H0V13.05H4.27ZM.85,21.13H3.42V13.9H.85Z"/><path class="cls-1" d="M4.27,35H0V26.1H4.27ZM.85,34.19H3.42V27H.85Z"/><path class="cls-1" d="M4.27,48.09H0V39.16H4.27ZM.85,47.24H3.42V40H.85Z"/><path class="cls-1" d="M23.5,20.33A5.34,5.34,0,1,1,28.83,15,5.34,5.34,0,0,1,23.5,20.33Zm0-9.82A4.49,4.49,0,1,0,28,15,4.49,4.49,0,0,0,23.5,10.51Z"/><path class="cls-1" d="M17.26,38.76h-.61a7.13,7.13,0,0,1-1.57-.23,6.3,6.3,0,0,1-4-3.39,5.1,5.1,0,0,1,0-4.37,8.35,8.35,0,0,1,2.72-3.09A19.78,19.78,0,0,1,18,25.38a14.2,14.2,0,0,1,2.53-.82A16.23,16.23,0,0,1,25,24.39a17.33,17.33,0,0,1,4.21.75c1.85.62,6.26,2.47,7.42,6.2a5.11,5.11,0,0,1,.24,1.59,6,6,0,0,1-2.94,4.8c-1.75,1.08-3.69,1.05-5.57,1H17.26Zm1.52-.87h9.6c1.83,0,3.57.06,5.1-.9A5.06,5.06,0,0,0,36,32.92a4.08,4.08,0,0,0-.19-1.33c-1.07-3.44-5.54-5.19-6.88-5.64a17,17,0,0,0-4-.71,14.53,14.53,0,0,0-4.23.16,12.81,12.81,0,0,0-2.38.77,18.68,18.68,0,0,0-4,2.19,7.47,7.47,0,0,0-2.46,2.77,4.22,4.22,0,0,0,0,3.64,5.43,5.43,0,0,0,3.48,2.93,6.52,6.52,0,0,0,1.38.2h0c.44,0,.89,0,1.33,0Z"/></g></g></svg>