<svg xmlns="http://www.w3.org/2000/svg" viewBox="0 0 41 36.08"><defs><style>.cls-1{fill:#fff;}</style></defs><title>hitsindus</title><g id="Layer_2" data-name="Layer 2"><g id="blog_layer" data-name="blog layer"><path class="cls-1" d="M37.07,36.08H3.93A3.93,3.93,0,0,1,0,32.15V3.93A3.93,3.93,0,0,1,3.93,0H37.07A3.93,3.93,0,0,1,41,3.93V32.15A3.93,3.93,0,0,1,37.07,36.08ZM3.93.79A3.15,3.15,0,0,0,.79,3.93V32.15a3.15,3.15,0,0,0,3.14,3.14H37.07a3.15,3.15,0,0,0,3.14-3.14V3.93A3.15,3.15,0,0,0,37.07.79Z"/><path class="cls-1" d="M4.94,7.35A2.21,2.21,0,1,1,7.15,5.14,2.21,2.21,0,0,1,4.94,7.35Zm0-3.63A1.42,1.42,0,1,0,6.36,5.14,1.43,1.43,0,0,0,4.94,3.72Z"/><path class="cls-1" d="M10.87,7.35a2.21,2.21,0,1,1,2.2-2.21A2.21,2.21,0,0,1,10.87,7.35Zm0-3.63a1.42,1.42,0,1,0,1.41,1.42A1.42,1.42,0,0,0,10.87,3.72Z"/><path class="cls-1" d="M16.79,7.35A2.21,2.21,0,1,1,19,5.14,2.21,2.21,0,0,1,16.79,7.35Zm0-3.63a1.42,1.42,0,1,0,1.42,1.42A1.43,1.43,0,0,0,16.79,3.72Z"/><rect class="cls-1" x="0.4" y="8.89" width="40.21" height="0.79"/><path class="cls-1" d="M31.47,23.66l2.05-2.05-10.3-2.76L26,29.15l1.7-1.7,4,4,3.79-3.79Zm-3.24,3.23-.55-.55-.57.55-.72.73-.54-2-.25-.93L24.34,20,32,22,30.91,23.1l-.56.56,4,4-2.67,2.67Z"/><path class="cls-1" d="M20.18,23.28a.43.43,0,0,1-.28-.11.4.4,0,0,1,0-.56L21.56,21a.4.4,0,0,1,.56.56l-1.66,1.66A.39.39,0,0,1,20.18,23.28Z"/><path class="cls-1" d="M18.79,20.07a.4.4,0,0,1,0-.79l2.33-.16a.39.39,0,0,1,.42.36.4.4,0,0,1-.36.43l-2.34.16Z"/><path class="cls-1" d="M21.7,18.14a.4.4,0,0,1-.23-.08L19.6,16.65a.39.39,0,0,1-.08-.55.4.4,0,0,1,.56-.08l1.86,1.41A.39.39,0,0,1,22,18,.42.42,0,0,1,21.7,18.14Z"/><path class="cls-1" d="M23.31,17.19a.4.4,0,0,1-.39-.32l-.48-2.29a.38.38,0,0,1,.3-.46.39.39,0,0,1,.47.3l.49,2.29a.4.4,0,0,1-.31.47Z"/><path class="cls-1" d="M25.14,17.52a.45.45,0,0,1-.19-.05.4.4,0,0,1-.15-.54l1.13-2a.41.41,0,0,1,.54-.16.4.4,0,0,1,.15.54l-1.13,2.05A.39.39,0,0,1,25.14,17.52Z"/></g></g></svg>