<svg xmlns="http://www.w3.org/2000/svg" viewBox="0 0 45.51 41"><defs><style>.cls-1{fill:#f7f7f7;}.cls-2{fill:none;}</style></defs><title> indus</title><g id="Layer_2" data-name="Layer 2"><g id="blog_layer" data-name="blog layer"><path class="cls-1" d="M43.68,21.24l-7.3-3.95a1,1,0,0,0-1.42.88l.1,3.07H33.2l-7.3-3.95a1,1,0,0,0-1,0,.93.93,0,0,0-.45.84l.09,3.07H22.72l-7.29-3.95a1,1,0,0,0-1,0,1,1,0,0,0-.45.84l.09,3.07H10.59V0H2.38V21.24H0V41H45.51V21.24Zm1,18.94H.82V22.06H3.2V.82H9.77V22.06H15l0-.82-.09-3.11s0,0,0,0H15l5.82,3.15,1.51.82h3.19l0-.82-.09-3.11a0,0,0,0,1,0,0h0l5.82,3.15,1.51.82H36l0-.82-.08-3.11a0,0,0,0,1,0,0h0l5.82,3.15,1.52.82h1.41Z"/><path class="cls-1" d="M23.27,28.9H20.41a.79.79,0,0,0-.78.79v2.85a.78.78,0,0,0,.78.78h2.86a.78.78,0,0,0,.78-.78V29.69A.79.79,0,0,0,23.27,28.9Zm-.13,3.52h-2.6V29.81h2.6Z"/><path class="cls-1" d="M29.52,28.9H26.67a.79.79,0,0,0-.78.79v2.85a.78.78,0,0,0,.78.78h2.85a.79.79,0,0,0,.79-.78V29.69A.8.8,0,0,0,29.52,28.9Zm-.12,3.52H26.8V29.81h2.6Z"/><path class="cls-1" d="M35.78,28.9H32.92a.78.78,0,0,0-.77.79v2.85a.77.77,0,0,0,.77.78h2.86a.78.78,0,0,0,.78-.78V29.69A.79.79,0,0,0,35.78,28.9Zm-.13,3.52h-2.6V29.81h2.6Z"/><path class="cls-1" d="M42,28.9H39.18a.79.79,0,0,0-.78.79v2.85a.78.78,0,0,0,.78.78H42a.78.78,0,0,0,.78-.78V29.69A.79.79,0,0,0,42,28.9Zm-.13,3.52h-2.6V29.81h2.6Z"/><line class="cls-2" x1="9.77" y1="22.06" x2="9.77" y2="21.24"/><line class="cls-2" x1="3.2" y1="22.06" x2="3.2" y2="21.24"/></g></g></svg>