<svg xmlns="http://www.w3.org/2000/svg" viewBox="0 0 41 41.91"><defs><style>.cls-1{fill:#f7f7f7;}.cls-2{fill:none;stroke:#fff;stroke-miterlimit:10;stroke-width:0.48px;}</style></defs><title>serviceindus</title><g id="Layer_2" data-name="Layer 2"><g id="blog_layer" data-name="blog layer"><path class="cls-1" d="M40.72,14.06,37.43,8.37a2.12,2.12,0,0,0-2.63-.9L30.49,9.21a16,16,0,0,0-2.77-1.78l-1-5.68A2.12,2.12,0,0,0,24.63,0H18.07A2.13,2.13,0,0,0,16,1.83L15.3,6.68A16,16,0,0,0,12.53,8L7,6a2.11,2.11,0,0,0-2.56.93L1.14,12.58a2.12,2.12,0,0,0,.53,2.73l3.56,2.78a15.66,15.66,0,0,0-.38,3.45v.2L.76,25.17a2.12,2.12,0,0,0-.48,2.68l3.29,5.69A2.13,2.13,0,0,0,5.41,34.6a2,2,0,0,0,.79-.16L9.78,33a15.6,15.6,0,0,0,3.7,2.62l.8,4.55a2.12,2.12,0,0,0,2.09,1.75h6.56A2.12,2.12,0,0,0,25,40.09l.49-3.54a15.66,15.66,0,0,0,4.26-2.15L34,35.94A2.11,2.11,0,0,0,36.58,35l3.28-5.68a2.12,2.12,0,0,0-.53-2.73l-3.12-2.44a16.25,16.25,0,0,0,.21-2.62c0-.52,0-1-.07-1.54l3.89-3.26A2.12,2.12,0,0,0,40.72,14.06Zm-.94,2.13-3.54,3-.42.36c0,.29.06.57.08.86s.05.77.05,1.16a15.72,15.72,0,0,1-.17,2.29c0,.26-.09.53-.14.79l.41.32,2.85,2.22A1.42,1.42,0,0,1,39.25,29L36,34.66a1.4,1.4,0,0,1-1.7.61l-3.81-1.38-.53-.19c-.22.17-.46.34-.7.5A15.27,15.27,0,0,1,25.6,36l-.76.23-.07.52L24.33,40a1.42,1.42,0,0,1-1.4,1.21H16.37A1.41,1.41,0,0,1,15,40L14.27,36l-.1-.56-.8-.4a15.22,15.22,0,0,1-3.11-2.23c-.19-.17-.37-.35-.55-.54l-.48.19-3.3,1.34a1.41,1.41,0,0,1-1.75-.6L.9,27.5a1.4,1.4,0,0,1,.32-1.78l3.66-3.08.46-.38c0-.24,0-.48,0-.72v-.2a16.63,16.63,0,0,1,.32-2.93l.18-.76-.4-.32L2.11,14.75a1.41,1.41,0,0,1-.36-1.81L5,7.25a1.39,1.39,0,0,1,1.21-.7,1.41,1.41,0,0,1,.49.09l5,1.83.56.2c.25-.16.51-.32.78-.47a14.34,14.34,0,0,1,2.1-1c.25-.1.5-.19.76-.27l.07-.52.63-4.51A1.4,1.4,0,0,1,18.07.71h6.56A1.41,1.41,0,0,1,26,1.87l.91,5.19.1.57c.27.12.54.25.8.39A16.29,16.29,0,0,1,30,9.42l.63.51.49-.2,4-1.6a1.4,1.4,0,0,1,1.75.6l3.28,5.68A1.4,1.4,0,0,1,39.78,16.19Z"/><circle class="cls-2" cx="20.5" cy="20.96" r="9.1"/></g></g></svg>