<svg xmlns="http://www.w3.org/2000/svg" viewBox="0 0 333.02 333.02"><defs><style>.cls-1{fill:none;stroke:#fdfefe;stroke-miterlimit:10;stroke-width:4px;}</style></defs><title>crane</title><g id="Layer_2" data-name="Layer 2"><g id="Layer_1-2" data-name="Layer 1"><path class="cls-1" d="M25.5,225.26h141a11.75,11.75,0,0,0,0-23.5H131.26v-94A11.75,11.75,0,0,0,119.51,96h-94a11.75,11.75,0,0,0-11.75,11.75V213.51A11.75,11.75,0,0,0,25.5,225.26Z"/><path class="cls-1" d="M330.49,34.63a11.45,11.45,0,0,0-.36-1.78,11.54,11.54,0,0,0-2.56-3.91L304.08,5.44A11.76,11.76,0,0,0,289.25,4l-141,94a11.75,11.75,0,0,0,6.52,21.52h49.11l-45,38a11.75,11.75,0,1,0,15.18,17.93l67-56.71a11.74,11.74,0,0,0,6.06-5.13l60.33-51V213.51a11.75,11.75,0,0,1-23.5,0,11.75,11.75,0,0,0,0-23.5H272.27a11.75,11.75,0,0,0-11.75,11.75v11.75a35.25,35.25,0,0,0,70.5,0V37.25A11.39,11.39,0,0,0,330.49,34.63ZM227.38,96H193.57l39-26Zm28-20.07,4.87-24.37,34-22.7,7.66,7.66Z"/><path class="cls-1" d="M190,237H49a47,47,0,0,0,0,94H190a47,47,0,0,0,0-94ZM69.1,292.36a23.2,23.2,0,0,1-1.89,1.4,6.37,6.37,0,0,1-2,1.06,7.68,7.68,0,0,1-2.12.71,17,17,0,0,1-2.35.23,11.79,11.79,0,0,1-8.34-20.09c4.34-4.35,12.22-4.35,16.69,0a11.94,11.94,0,0,1,0,16.69Zm61.92-6a7.64,7.64,0,0,1-.7,2.12,9.07,9.07,0,0,1-1.06,2.11l-1.41,1.77a13.85,13.85,0,0,1-3.88,2.46,9.79,9.79,0,0,1-4.46.94,12.39,12.39,0,0,1-8.35-3.4A11.74,11.74,0,0,1,124,273.2a13.66,13.66,0,0,1,3.88,2.47,12.36,12.36,0,0,1,3.41,8.34A15.6,15.6,0,0,1,131,286.36Zm55.58,6a13.57,13.57,0,0,1-3.88,2.46,11.07,11.07,0,0,1-8.93,0,13.8,13.8,0,0,1-3.87-2.46,11.92,11.92,0,0,1,0-16.69,13.61,13.61,0,0,1,3.87-2.47,11.8,11.8,0,0,1,8.93,0,13.39,13.39,0,0,1,3.88,2.47,11.92,11.92,0,0,1,0,16.69Z"/></g></g></svg>