<svg id="Layer_2" data-name="Layer 2" xmlns="http://www.w3.org/2000/svg" width="27.78" height="20" viewBox="0 0 27.78 20">
  <g id="admin">
    <path id="Path_177" data-name="Path 177" d="M.36,5.39A15.44,15.44,0,0,1,.16,14s3.15,2.18,6.13,1.62l.83-2.39a1,1,0,0,0-.6-1.25L2,10.29S2.24,7,.36,5.39Z" fill="#2f4858"/>
    <path id="Path_178" data-name="Path 178" d="M.68,4.77A6.47,6.47,0,0,1,1.79,6.44S1.88,6.66,7.17,4a6.17,6.17,0,0,0-.4-2.77S2.57,2.12.68,4.77Z" fill="#636464"/>
    <path id="Path_179" data-name="Path 179" d="M7.42,1A19.32,19.32,0,0,1,7.7,4.3L2,6.9a7.22,7.22,0,0,1,.52,2.92,21.8,21.8,0,0,0,4.13,1.49s2,.48.28,4.16c0,0,3-.5,3.85-.16,0,0,1.45-3.69,7.38-2.85a.59.59,0,0,0,.39-.07c.26-.16.15-.52.09-.75a3.17,3.17,0,0,0-.35-.88,2.43,2.43,0,0,0-.79-.74S11.23,6.29,10.17,5V3.12l-.56-.91A.7.7,0,0,1,10,1.72,1.75,1.75,0,0,0,9.06,0Z" fill="#7f3c1c"/>
    <path id="Path_180" data-name="Path 180" d="M11.33,15.47a3.73,3.73,0,0,1,3.23-2.4,28.06,28.06,0,0,0,4.15-.26c.39-.21.69,0,.27-1.88,0,0,3.34,1.53,5.21.82,0,0,3.81-1.85,3.58,2.36,0,0-4,3.08-5.83,3.16a10.77,10.77,0,0,1-2-.15C18.78,16.92,13.06,15.55,11.33,15.47Z" fill="#855443"/>
    <path id="Path_181" data-name="Path 181" d="M27.66,14.74v2.19a7.55,7.55,0,0,1-2.21,1.73h0v-.11a.26.26,0,0,0-.29-.22h0a.24.24,0,0,0-.21.29v.25a12.32,12.32,0,0,1-2,.49v-.44a.25.25,0,0,0-.25-.25h0a.25.25,0,0,0-.25.25v.54c-.55.1-1.08.18-1.58.25v-.34a.25.25,0,0,0-.25-.25h0a.25.25,0,0,0-.25.25v.4l-1,.09v-.35a.25.25,0,0,0-.25-.25h0a.25.25,0,0,0-.25.25v.39H17.55v-.48a.25.25,0,0,0-.26-.25h0a.26.26,0,0,0-.26.25V20h-.29a13.441,13.441,0,0,1-1.36-.07c-2.14-.26-2.8-1.1-4.09-1.11A4,4,0,0,0,8.43,20H6.74v-.49a.25.25,0,0,0-.25-.25h0a.25.25,0,0,0-.25.25V20h-2v-.54a.26.26,0,0,0-.26-.26h0a.25.25,0,0,0-.26.26V20H3.07a4.73,4.73,0,0,1-1-.13l-.36-.11.07-.6a.24.24,0,0,0-.22-.28h0a.26.26,0,0,0-.28.23l-.05.45A5.26,5.26,0,0,1,0,18.69c.05-1.36.11-2.71.16-4.07a10.69,10.69,0,0,0,6,1.38h.31a18.29,18.29,0,0,1,5.68.1l.65.16c1.91.47,2.85.62,7.19,1.41a5.81,5.81,0,0,0,.69.11A6.53,6.53,0,0,0,24,17.15a28.44,28.44,0,0,0,3.52-2.28Z" fill="#191f20"/>
    <ellipse id="Ellipse_29" data-name="Ellipse 29" cx="0.74" cy="0.86" rx="0.74" ry="0.86" transform="matrix(0.413, -0.911, 0.911, 0.413, 8.907, 7.089)" fill="none" stroke="#f2f2f3" stroke-miterlimit="10" stroke-width="0.34"/>
    <ellipse id="Ellipse_30" data-name="Ellipse 30" cx="0.74" cy="0.86" rx="0.74" ry="0.86" transform="matrix(0.413, -0.911, 0.911, 0.413, 11.326, 8.667)" fill="none" stroke="#f2f2f3" stroke-miterlimit="10" stroke-width="0.34"/>
    <ellipse id="Ellipse_31" data-name="Ellipse 31" cx="0.74" cy="0.86" rx="0.74" ry="0.86" transform="matrix(0.413, -0.911, 0.911, 0.413, 13.819, 10.188)" fill="none" stroke="#f2f2f3" stroke-miterlimit="10" stroke-width="0.34"/>
  </g>
</svg>
