<svg xmlns="http://www.w3.org/2000/svg" width="10.235" height="20.081" viewBox="0 0 10.235 20.081">
  <g id="Layer_2" data-name="Layer 2" transform="translate(0.005 0.001)">
    <g id="admin">
      <path id="Path_182" data-name="Path 182" d="M.11,6.4C0,4,2.49.18,4.91.11s5.15,3.6,5.21,6" fill="none" stroke="#5c5c5c" stroke-miterlimit="10" stroke-width="0.22"/>
      <path id="Path_183" data-name="Path 183" d="M10.13,6.29,10,9.56v.96l-.18,4.82v.96L9.6,19.83l-8.35.23L1,16.6l-.05-.53v-.49L.56,11.06V10.03L.2,6.47c.23.44,2.46.72,5.07.65C7.69,7.05,9.7,6.7,10.13,6.29Z" fill="#c32127"/>
      <path id="Path_184" data-name="Path 184" d="M7.42,16.46l.27,3.46L4.62,20l.13-3.37V15.62L5,10.57V9.56l.09-2.4h.15a8.167,8.167,0,0,0,1.43-.08l.21,2.81v1.03l.35,4.52v.49Z" fill="#fff" opacity="0.18"/>
      <path id="Path_185" data-name="Path 185" d="M4.82,19.8l.12-3.15V15.64l.22-5.56V9.57l.09-2.22a8.108,8.108,0,0,0,1.21-.06l.24,3.1v.55l.68,8.79Z" fill="#fff" opacity="0.18"/>
      <path id="Path_186" data-name="Path 186" d="M5.5,19.14l.09-2.47.03-.5.01-.51.22-5.56.02-.5.06-1.48.18,2.32.04.55.63,8.11Z" fill="#fff" opacity="0.18"/>
      <path id="Path_187" data-name="Path 187" d="M3.83,16.57,4.1,20l-2.87.08L1,16.65V15.63L.54,11.11V10.08L.19,6.52c.16.31,1.32.54,2.91.62L3.32,10v1.03l.35,4.52v.49Z" opacity="0.22"/>
      <path id="Path_188" data-name="Path 188" d="M10.13,6.34,10,9.61v.95l-.19,4.83v.96L9.6,19.88H8.47l.14-3.53v-.96l.18-4.82V9.61L9,6.78a2.78,2.78,0,0,0,1.13-.44Z" opacity="0.22"/>
      <path id="Path_189" data-name="Path 189" d="M10.21,6.13a.24.24,0,0,1-.08.16c-.43.41-2.44.76-4.86.83C2.66,7.19.43,6.91.21,6.47a.09.09,0,0,1,0-.07c0-.47,2.3-.92,5-1S10.2,5.65,10.21,6.13Z" fill="#a32822"/>
      <path id="Path_190" data-name="Path 190" d="M10.23,6.12a.25.25,0,0,1-.08.17,1.31,1.31,0,0,1-.3.18,14.78,14.78,0,0,0-4.59-.4,15.84,15.84,0,0,0-4.64.65.72.72,0,0,1-.4-.25.14.14,0,0,1,0-.07c0-.47,2.3-.92,5-1S10.22,5.65,10.23,6.12Z" fill="#fff" opacity="0.14"/>
      <path id="Path_191" data-name="Path 191" d="M10,9.56v.49a26.82,26.82,0,0,1-5.29.58,35.439,35.439,0,0,1-4.17-.11v-.49a36,36,0,0,0,4.22.12A29.42,29.42,0,0,0,9.6,9.67q.2-.046.4-.11Z" fill="none" stroke="#5c5c5c" stroke-miterlimit="10" stroke-width="0.24"/>
      <path id="Path_192" data-name="Path 192" d="M10,10.05v.47a24.31,24.31,0,0,1-5.47.63A36.909,36.909,0,0,1,.6,11.06v-.54a35.439,35.439,0,0,0,4.17.11A26.82,26.82,0,0,0,10,10.05Z" fill="none" stroke="#5c5c5c" stroke-miterlimit="10" stroke-width="0.24"/>
      <path id="Path_193" data-name="Path 193" d="M9.78,15.34v.48a17.13,17.13,0,0,1-4.38.56A17.57,17.57,0,0,1,1,16.07v-.49l.23.06h.08a20.16,20.16,0,0,0,3.94.25h.53a19.36,19.36,0,0,0,3.68-.43Z" fill="none" stroke="#5c5c5c" stroke-miterlimit="10" stroke-width="0.22"/>
      <path id="Path_194" data-name="Path 194" d="M9.76,15.82v.48a15.55,15.55,0,0,1-4.42.6A17.94,17.94,0,0,1,1,16.6v-.53a17.57,17.57,0,0,0,4.43.31,17.13,17.13,0,0,0,4.33-.56Z" fill="none" stroke="#5c5c5c" stroke-miterlimit="10" stroke-width="0.22"/>
    </g>
  </g>
</svg>
