<svg xmlns="http://www.w3.org/2000/svg" width="14.24" height="20.001" viewBox="0 0 14.24 20.001">
  <g id="Layer_2" data-name="Layer 2" transform="translate(0 0.001)">
    <g id="admin">
      <line id="Line_20" data-name="Line 20" y1="1.94" x2="2.48" transform="translate(10.3 12.34)" fill="none" stroke="#020202" stroke-miterlimit="10" stroke-width="0.65"/>
      <circle id="Ellipse_32" data-name="Ellipse 32" cx="0.85" cy="0.85" r="0.85" transform="translate(12.54 11.06)" fill="#0d1110"/>
      <circle id="Ellipse_33" data-name="Ellipse 33" cx="0.37" cy="0.37" r="0.37" transform="translate(12.87 11.22)" fill="#fdfefe" opacity="0.18"/>
      <circle id="Ellipse_34" data-name="Ellipse 34" cx="0.15" cy="0.15" r="0.15" transform="translate(12.99 11.29)" fill="#fff" opacity="0.32"/>
      <rect id="Rectangle_59" data-name="Rectangle 59" width="8.6" height="6.08" transform="translate(2.18 13.92)" fill="#601117"/>
      <path id="Path_207" data-name="Path 207" d="M4.39,20H2.18V13.92H7.63C7.91,15.37,7.59,17.67,4.39,20Z" fill="#fff" opacity="0.06"/>
      <path id="Path_208" data-name="Path 208" d="M5.64,20H4.41c3.19-2.33,3.52-4.63,3.24-6.08H8.89C9.16,15.37,8.84,17.67,5.64,20Z" opacity="0.17"/>
      <path id="Path_209" data-name="Path 209" d="M6.52,14.51a3.27,3.27,0,0,1-3.77,2.9v-2.9Z" fill="#fff" opacity="0.13"/>
      <path id="Path_210" data-name="Path 210" d="M3.24,15H5.93a2.62,2.62,0,0,1-2.69,1.92Z" fill="#fff" opacity="0.13"/>
      <path id="Path_211" data-name="Path 211" d="M3.86,15.62H5a1.94,1.94,0,0,1-1.09.6Z" fill="#fff" opacity="0.13"/>
      <path id="Path_212" data-name="Path 212" d="M13.94,7A7,7,0,0,1,2,11.8,6.84,6.84,0,0,1,0,7,7,7,0,0,1,7,0,5.1,5.1,0,0,1,8.08.1,7,7,0,0,1,13.94,7Z" fill="#a11d27"/>
      <path id="Path_213" data-name="Path 213" d="M2.25,11A6.07,6.07,0,0,1,.84,7.07,6.23,6.23,0,0,1,6.69.86C.35,4.35,2.23,8.32,2.25,11Z" fill="#fffeff" opacity="0.1"/>
      <path id="Path_214" data-name="Path 214" d="M1.76,9.55a5.77,5.77,0,0,1-.55-2.48A5.88,5.88,0,0,1,4.67,1.72C1.16,4.42,1.5,7.34,1.75,9.54Z" fill="#fffeff" opacity="0.1"/>
      <path id="Path_215" data-name="Path 215" d="M1.53,8.57a5.74,5.74,0,0,1,2-6.05,7,7,0,0,0-2,6.05Z" fill="#fffeff" opacity="0.1"/>
      <path id="Path_216" data-name="Path 216" d="M13.94,7A7,7,0,0,1,2,11.8a5.28,5.28,0,0,1-.7-.85,6.78,6.78,0,0,0,4,1.29,7,7,0,0,0,5.7-11A7,7,0,0,1,13.94,7Z" opacity="0.14"/>
      <circle id="Ellipse_35" data-name="Ellipse 35" cx="0.85" cy="0.85" r="0.85" transform="translate(6.12 6.12)" fill="#8a1a1c" stroke="#000" stroke-miterlimit="10" stroke-width="0.31" opacity="0.47"/>
      <circle id="Ellipse_36" data-name="Ellipse 36" cx="0.37" cy="0.37" r="0.37" transform="translate(6.52 6.38)" fill="#fdfefe" opacity="0.18"/>
      <circle id="Ellipse_37" data-name="Ellipse 37" cx="0.15" cy="0.15" r="0.15" transform="translate(6.74 6.6)" fill="#fff" opacity="0.32"/>
    </g>
  </g>
</svg>
