<svg xmlns="http://www.w3.org/2000/svg" width="60.25" height="20.052" viewBox="0 0 60.25 20.052">
  <g id="Group_14" data-name="Group 14" transform="translate(-47 -508)">
    <path id="Path_63" data-name="Path 63" d="M60.25,3.88l-2,1.56-1-.56-1.83-1H29.65c-11,0-22.08,0-25.4.09L2.78,5h0L2,5.6,0,3.88,1.66,0S38,3.1,58.32,0Z" transform="translate(47 508)" fill="#264150"/>
    <path id="Path_64" data-name="Path 64" d="M54.31,15.94C52.65,19,37.41,20.2,35.8,20s-3.07-5.28-3.07-5.28c-2.61-6.39-5.19-1-5.19-1-1.62,4.82-3.4,6.11-3.4,6.11-5.06.87-14.19-1-17.39-2.5S2.68,5.08,2.78,5h0L4.26,3.9c3.32-.07,14.4-.09,25.4-.09H55.43l1.83,1a23.11,23.11,0,0,1-2.95,11.13Z" transform="translate(47 508)" fill="#9ad3f3"/>
    <path id="Path_65" data-name="Path 65" d="M36,20h-.22c-1.61-.22-3.08-5.23-3.08-5.23-2.62-6.33-5.2-1-5.2-1-1.62,4.77-3.41,6-3.41,6-.23,0-.47.08-.72.1A18.92,18.92,0,0,0,26.94,13s3.13-6.44,6.31,1.25C33.25,14.29,34.46,18.39,36,20Z" transform="translate(47 508)" opacity="0.19"/>
    <path id="Path_66" data-name="Path 66" d="M46.31,3.89l-10.48,16a1.63,1.63,0,0,1-.36-.26L45.78,3.89Z" transform="translate(47 508)" fill="#fff" opacity="0.55"/>
    <path id="Path_67" data-name="Path 67" d="M53.37,3.91,43.14,19.56c-1.24.16-2.42.27-3.46.35l10.47-16Z" transform="translate(47 508)" fill="#fff" opacity="0.55"/>
    <path id="Path_68" data-name="Path 68" d="M55.78,3.92l-10,15.26c-.6.1-1.19.19-1.79.27L54.16,3.92Z" transform="translate(47 508)" fill="#fff" opacity="0.55"/>
    <path id="Path_69" data-name="Path 69" d="M22.5,3.82,12.6,19c-1-.21-1.94-.44-2.79-.68l9.46-14.5Z" transform="translate(47 508)" fill="#fff" opacity="0.55"/>
    <path id="Path_70" data-name="Path 70" d="M24.91,3.81,14.74,19.37c-.49-.09-1-.17-1.44-.27l10-15.28Z" transform="translate(47 508)" fill="#fff" opacity="0.55"/>
  </g>
</svg>
