<svg id="Layer_2" data-name="Layer 2" xmlns="http://www.w3.org/2000/svg" width="27.29" height="20.001" viewBox="0 0 27.29 20.001">
  <g id="admin">
    <path id="Path_217" data-name="Path 217" d="M1.3,16C.65,6.79,6.55.72,13.76.72S26.12,6.44,25.89,15.44" fill="#e4bd22"/>
    <path id="Path_218" data-name="Path 218" d="M.42,16s16.93-3,26.35,0l.52,2.61S13.71,21.74,0,18.61Z" fill="#f6891f"/>
    <path id="Path_219" data-name="Path 219" d="M14.26,12.52H13.12a2,2,0,0,1-2-2.15l.56-8.49a2,2,0,0,1,2-1.88h0a2,2,0,0,1,2,1.88l.56,8.49a2,2,0,0,1-1.98,2.15Z" fill="#f6891f"/>
    <path id="Path_220" data-name="Path 220" d="M9.32,9.87H8.7a1.33,1.33,0,0,1-.95-1.61l.81-6A1.33,1.33,0,0,1,9.75,1h0a1.27,1.27,0,0,1,1,1.42l-.2,6C10.5,9.27,10,9.92,9.32,9.87Z" fill="#f6891f"/>
    <path id="Path_221" data-name="Path 221" d="M18.5,9.79l-.62.07c-.62.07-1.2-.57-1.25-1.4l-.35-6A1.27,1.27,0,0,1,17.22,1h0a1.27,1.27,0,0,1,1.23,1.2l1,5.93a1.32,1.32,0,0,1-.95,1.66Z" fill="#f6891f"/>
  </g>
</svg>
