<svg xmlns="http://www.w3.org/2000/svg" width="22.197" height="22.177" viewBox="0 0 22.197 22.177">
  <g id="admin" transform="translate(0.62 0.605)">
    <path id="Path_224" data-name="Path 224" d="M18.719,12.275c-2.195-2.195-4.762-2.465-6.584-.614h0a5.165,5.165,0,0,0-.593.732A27.989,27.989,0,0,1,8.748,9.6,5.684,5.684,0,0,0,9.48,9c1.843-1.843,1.609-4.389-.622-6.584S4.1-.051,2.274,1.8a6.386,6.386,0,0,0-.732,7.732A38.376,38.376,0,0,0,11.609,19.59a6.064,6.064,0,0,0,3.387.98,6.174,6.174,0,0,0,4.345-1.69C21.185,17.037,20.951,14.506,18.719,12.275Z" transform="translate(0)" fill="none" stroke="#f7f7f7" stroke-miterlimit="10" stroke-width="2"/>
  </g>
</svg>
