<svg xmlns="http://www.w3.org/2000/svg" width="13.34" height="20.068" viewBox="0 0 13.34 20.068">
  <g id="Layer_2" data-name="Layer 2" transform="translate(0 0.033)">
    <g id="admin">
      <path id="Path_225" data-name="Path 225" d="M1.73.8V12l-.66-.17V9.44A1.59,1.59,0,0,0,1,9L.07,6.07A1.61,1.61,0,0,1,0,5.58V1.66a.35.35,0,0,1,.22-.32Z" fill="#fbab1a"/>
      <path id="Path_226" data-name="Path 226" d="M6.2,15.84v1.5A20,20,0,0,1,1,16.65V15.16a20.58,20.58,0,0,0,5.2.68Z" fill="#fff"/>
      <path id="Path_227" data-name="Path 227" d="M7.24,17.37l.09,1.9H6.1l.07-1.89.06-1.49.07-1.83.06-1.55.22-5.6L4.23.11A5.39,5.39,0,0,0,9.1,0L6.77,6.89,7,12.51l.07,1.54.08,1.83Z" fill="#f6891f"/>
      <path id="Path_228" data-name="Path 228" d="M6.3,14.06l-.07,1.83a19.82,19.82,0,0,1-5.16-.69V13.37a19.92,19.92,0,0,0,5.23.69Z" fill="#faad1b"/>
      <path id="Path_229" data-name="Path 229" d="M6.58,6.91l-.22,5.6a21.28,21.28,0,0,1-3-.22V.21L3.85,0a.31.31,0,0,1,.28,0l.1.05Z" fill="#fbab1a"/>
      <path id="Path_230" data-name="Path 230" d="M10.12.29v12a23.65,23.65,0,0,1-3.1.27L6.77,6.89,9.1,0a.36.36,0,0,1,.25,0Z" fill="#fbab1a"/>
      <path id="Path_231" data-name="Path 231" d="M6.17,17.38,6.1,19.27v.71a13.9,13.9,0,0,1-5-1.43V16.7a20.12,20.12,0,0,0,5.07.68Z" fill="#faad1b"/>
      <path id="Path_232" data-name="Path 232" d="M12.32,13.36v1.83a25.08,25.08,0,0,1-5.15.69l-.08-1.83a24,24,0,0,0,5.23-.69Z" fill="#faad1b"/>
      <path id="Path_233" data-name="Path 233" d="M12.32,16.69v1.6a8.54,8.54,0,0,1-5,1.71v-.73l-.09-1.9a25,25,0,0,0,5.09-.68Z" fill="#faad1b"/>
      <path id="Path_234" data-name="Path 234" d="M12.32,15.19v1.5a25,25,0,0,1-5.08.68l-.07-1.49a25.08,25.08,0,0,0,5.15-.69Z" fill="#fff"/>
      <path id="Path_235" data-name="Path 235" d="M13.34,1.74V5.58a1.36,1.36,0,0,1-.08.49l-.81,2.51a1.76,1.76,0,0,0-.07.45l-.06,2.71v.07L11.6,12V.81l1.4.51A.44.44,0,0,1,13.34,1.74Z" fill="#fbab1a"/>
      <path id="Path_236" data-name="Path 236" d="M6.08,19.98H6.1" fill="none" stroke="#ee232a" stroke-miterlimit="10" stroke-width="0.11"/>
      <path id="Path_237" data-name="Path 237" d="M6.36,12.51,6.3,14.06a19.92,19.92,0,0,1-5.23-.69V11.83l.66.17V.8L3.34.21V12.29a21.279,21.279,0,0,0,3.02.22Z" fill="#fff"/>
      <path id="Path_238" data-name="Path 238" d="M12.32,11.81v1.55a24,24,0,0,1-5.23.69L7,12.51a23.65,23.65,0,0,0,3.1-.27V.29l1.5.52V12Z" fill="#fff"/>
    </g>
  </g>
</svg>
