<svg xmlns="http://www.w3.org/2000/svg" width="112.87" height="43.392" viewBox="0 0 112.87 43.392">
  <g id="sanlogo" transform="translate(-1079.13 -357.178)">
    <path id="Path_252" data-name="Path 252" d="M57.43,72.72h10.7c-.37.27-.77.51-1.16.74L56.38,79.57V73.32Z" transform="translate(1043 321)" fill="#2f4858"/>
    <line id="Line_26" data-name="Line 26" x1="10.7" transform="translate(1100.43 393.72)" fill="none"/>
    <path id="Path_253" data-name="Path 253" d="M149,62.14c0,2.18-1.92,3.12-4.11,3.12-2,0-3.54-.61-4.26-2.4l1.54-.8a2.79,2.79,0,0,0,2.75,1.55c1.16,0,2.26-.41,2.26-1.47s-1-1.3-2.28-1.44c-1.83-.22-3.55-.69-3.8-2.47a2.671,2.671,0,0,1,0-.5c0-2,2-2.84,3.79-2.85a4.13,4.13,0,0,1,3.6,1.53c.09.13.17.27.25.41l-1.47.76a1.94,1.94,0,0,0-.72-.66,3.16,3.16,0,0,0-1.61-.43c-1.36,0-2,.57-2,1.3h0c0,.84,1,1.07,2.18,1.21C147.05,59.27,149,59.8,149,62.14Z" transform="translate(1043 321)" fill="#2f4858"/>
    <path id="Path_254" data-name="Path 254" d="M63.41,62.14c0,2.18-1.93,3.12-4.11,3.12-2,0-3.54-.61-4.27-2.4l1.54-.8a2.8,2.8,0,0,0,2.76,1.55c1.16,0,2.25-.41,2.25-1.47s-1-1.3-2.27-1.44c-2-.24-3.85-.77-3.85-3a2,2,0,0,1,0-.43c.26-1.7,2.09-2.41,3.76-2.42a4,4,0,0,1,3.84,1.94l-1.47.76a2.78,2.78,0,0,0-2.32-1.09c-1.37,0-2,.57-2,1.3h0c0,.84,1,1.07,2.19,1.21C61.51,59.27,63.41,59.8,63.41,62.14Z" transform="translate(1043 321)" fill="#ee2032"/>
    <path id="Path_255" data-name="Path 255" d="M75.62,61.6l-2.86-6.38h-2L68.42,60.4,66.35,65h2l.84-1.85h5.12L75.14,65h2Zm-5.69-.16.31-.7,1.51-3.47,1.75,4,.07.16Z" transform="translate(1043 321)" fill="#ee2032"/>
    <path id="Path_256" data-name="Path 256" d="M88.79,55.2v9.81H87.65v.01l-1.81-2.31-3.34-4.3v6.6H80.65V55.22h1.5l4.8,6.07V55.2Z" transform="translate(1043 321)" fill="#ee2032"/>
    <rect id="Rectangle_62" data-name="Rectangle 62" width="5.16" height="1.57" transform="translate(1135.81 380.66)" fill="#ee2032"/>
    <path id="Path_257" data-name="Path 257" d="M110.72,62.76l-3.39-7.54h-2l-3.57,7.93L100.92,65h2l.84-1.85h5.13l.82,1.85h2Zm-4.4-5.49,1.82,4.17h-3.63Z" transform="translate(1043 321)" fill="#2f4858"/>
    <path id="Path_258" data-name="Path 258" d="M123.32,59.34v4.13a4.85,4.85,0,0,1-3.9,1.76c-2.58,0-4.08-1.19-4.76-2.79a5.78,5.78,0,0,1-.42-2.2,5,5,0,0,1,5.18-5.3,5.18,5.18,0,0,1,3.64,1.49l-1.15,1.18a3.76,3.76,0,0,0-2.49-1,3.34,3.34,0,0,0-3.37,3.61,3.42,3.42,0,0,0,.6,2,3.18,3.18,0,0,0,2.77,1.26,3.28,3.28,0,0,0,2.21-.78V61h-2.5V59.34Z" transform="translate(1043 321)" fill="#2f4858"/>
    <path id="Path_259" data-name="Path 259" d="M136.9,59.12A4.78,4.78,0,0,0,132,55a4.89,4.89,0,0,0-5,5.16,5,5,0,0,0,5,5.05,4.81,4.81,0,0,0,5-5.06A5.311,5.311,0,0,0,136.9,59.12ZM132,63.54a3,3,0,0,1-3.19-2.9,3.111,3.111,0,0,1,0-.43A3.18,3.18,0,0,1,132,56.7a3,3,0,0,1,3.15,2.79,3.4,3.4,0,0,1,0,.71A3.09,3.09,0,0,1,132,63.54Z" transform="translate(1043 321)" fill="#2f4858"/>
    <path id="Path_260" data-name="Path 260" d="M55.57,73.32v6.25L45,73.45a17.79,17.79,0,0,1-8.87-15.36v-12l5.42,2.75v9.23a12.38,12.38,0,0,0,6.16,10.68Z" transform="translate(1043 321)" fill="#2f4858"/>
    <path id="Path_261" data-name="Path 261" d="M75.84,46.02v6.87H70.43V49.15Z" transform="translate(1043 321)" fill="#2f4858"/>
    <path id="Path_262" data-name="Path 262" d="M75.57,45.24l-5.41,3.12L60.54,42.8a9.15,9.15,0,0,0-9.11,0L42,48.21l-5.7-2.92,12.42-7.17a14.54,14.54,0,0,1,14.52,0Z" transform="translate(1043 321)" fill="#e23"/>
    <line id="Line_27" data-name="Line 27" x1="5.41" transform="translate(1113.43 373.89)" fill="none"/>
  </g>
</svg>
