<svg id="Layer_2" data-name="Layer 2" xmlns="http://www.w3.org/2000/svg" width="24.8" height="20.025" viewBox="0 0 24.8 20.025">
  <g id="admin">
    <path id="Path_239" data-name="Path 239" d="M0,0H24.8V4.16a2.37,2.37,0,0,1-2.37,2.37H2.38A2.37,2.37,0,0,1,0,4.16Z" fill="#bba88f"/>
    <path id="Path_240" data-name="Path 240" d="M11.23,0c-.06,1.49-.9,4.66-6.59,6.53H2.37A2.37,2.37,0,0,1,0,4.16V0Z" fill="#f9f9fa" opacity="0.29"/>
    <path id="Path_241" data-name="Path 241" d="M23.42,6.11,20.21,11a4.53,4.53,0,0,1-2.13,1.72h0l-.39.13h0a4.49,4.49,0,0,1-1.22.17H8.14a3.73,3.73,0,0,1-1-.16h0l-.39-.13h0A4.45,4.45,0,0,1,4.63,11L1.41,6.11Z" fill="#c0ad92"/>
    <circle id="Ellipse_38" data-name="Ellipse 38" cx="0.42" cy="0.42" r="0.42" transform="translate(19.48 6.97)" fill="#ed1f24"/>
    <g id="Group_12" data-name="Group 12" opacity="0.33">
      <path id="Path_242" data-name="Path 242" d="M16.28,8.93a3.64,3.64,0,0,1-1.66,2.76h0l-.32.25A14.84,14.84,0,0,1,12.67,13H8.05a4.36,4.36,0,0,1-1-.18l-.4-.14a4.47,4.47,0,0,1-2-1.7L1.38,6.11H13.59a9.63,9.63,0,0,1,1,.52l.23.15a2.88,2.88,0,0,1,1.46,2.15Z" fill="#f9f9fa"/>
    </g>
    <g id="Group_13" data-name="Group 13" opacity="0.56">
      <rect id="Rectangle_60" data-name="Rectangle 60" width="0.23" height="6.96" transform="translate(12.25 6.11)" fill="#a88e78"/>
      <path id="Path_243" data-name="Path 243" d="M11,13.06h-.32a3.72,3.72,0,0,1-.67-1.16,5.28,5.28,0,0,1-.3-1.83v-4H10v4a5.06,5.06,0,0,0,.28,1.75A3.3,3.3,0,0,0,11,13.06Z" fill="#a88e78"/>
      <path id="Path_244" data-name="Path 244" d="M14.87,6.11v4.17a5.24,5.24,0,0,1-.17,1.41h0a2.58,2.58,0,0,1-.13.42,2.39,2.39,0,0,1-.57,1h-.33a2.35,2.35,0,0,0,.69-1v-.09a5.08,5.08,0,0,0,.25-1.66V6.11Z" fill="#a88e78"/>
      <path id="Path_245" data-name="Path 245" d="M16.24,13.06a2.17,2.17,0,0,0,.71-1,5.53,5.53,0,0,0,.3-1.83V6.11H17v4.17A5.06,5.06,0,0,1,16.73,12a2,2,0,0,1-.88,1Z" fill="#a88e78"/>
      <path id="Path_246" data-name="Path 246" d="M8.83,13.06H8.46a2.87,2.87,0,0,1-.91-1.16,5.28,5.28,0,0,1-.3-1.83v-4h.23v4a5.06,5.06,0,0,0,.28,1.75,3,3,0,0,0,1.07,1.24Z" fill="#a88e78"/>
      <path id="Path_247" data-name="Path 247" d="M7.14,12.89l-.39-.13h0A12.62,12.62,0,0,1,3.8,6.11H4a12.82,12.82,0,0,0,3.09,6.76Z" fill="#a88e78"/>
      <path id="Path_248" data-name="Path 248" d="M21,6.11a12.5,12.5,0,0,1-3,6.65h0l-.39.13A12.76,12.76,0,0,0,20.8,6.11Z" fill="#a88e78"/>
    </g>
    <line id="Line_21" data-name="Line 21" x1="1.85" y2="3.03" transform="translate(4.89 15.04)" fill="none" stroke="#75726e" stroke-miterlimit="10" stroke-width="0.19"/>
    <line id="Line_22" data-name="Line 22" x2="2.03" y2="3.39" transform="translate(17.69 15.26)" fill="none" stroke="#75726e" stroke-miterlimit="10" stroke-width="0.19"/>
    <line id="Line_23" data-name="Line 23" x1="1.33" y2="4.87" transform="translate(8.47 15.13)" fill="none" stroke="#75726e" stroke-miterlimit="10" stroke-width="0.19"/>
    <line id="Line_24" data-name="Line 24" x2="1.5" y2="2.89" transform="translate(15.08 15.1)" fill="none" stroke="#75726e" stroke-miterlimit="10" stroke-width="0.19"/>
    <line id="Line_25" data-name="Line 25" y2="4.78" transform="translate(12.25 15.22)" fill="none" stroke="#75726e" stroke-miterlimit="10" stroke-width="0.19"/>
  </g>
</svg>
